<svg xmlns="http://www.w3.org/2000/svg" viewBox="0 0 1600 1000" preserveAspectRatio="xMidYMid slice" role="img" aria-label="Threat intelligence node network — static poster">
  <defs>
    <radialGradient id="g1" cx="70%" cy="35%" r="55%">
      <stop offset="0%" stop-color="#00d4aa" stop-opacity="0.16"/>
      <stop offset="60%" stop-color="#00d4aa" stop-opacity="0.04"/>
      <stop offset="100%" stop-color="#050510" stop-opacity="0"/>
    </radialGradient>
    <radialGradient id="g2" cx="20%" cy="70%" r="45%">
      <stop offset="0%" stop-color="#00d4aa" stop-opacity="0.10"/>
      <stop offset="60%" stop-color="#00d4aa" stop-opacity="0.02"/>
      <stop offset="100%" stop-color="#050510" stop-opacity="0"/>
    </radialGradient>
    <pattern id="dots" x="0" y="0" width="44" height="44" patternUnits="userSpaceOnUse">
      <circle cx="1" cy="1" r="1" fill="#00d4aa" fill-opacity="0.18"/>
    </pattern>
  </defs>
  <rect width="1600" height="1000" fill="#050510"/>
  <rect width="1600" height="1000" fill="url(#g1)"/>
  <rect width="1600" height="1000" fill="url(#g2)"/>
  <rect width="1600" height="1000" fill="url(#dots)" opacity="0.6"/>
  <g stroke="#00d4aa" stroke-opacity="0.22" stroke-width="1">
    <line x1="320" y1="240" x2="690" y2="430"/>
    <line x1="690" y1="430" x2="1080" y2="300"/>
    <line x1="1080" y1="300" x2="1320" y2="560"/>
    <line x1="420" y1="560" x2="780" y2="710"/>
    <line x1="780" y1="710" x2="1140" y2="620"/>
    <line x1="220" y1="780" x2="540" y2="610"/>
  </g>
  <g fill="#00d4aa">
    <circle cx="320" cy="240" r="3"/>
    <circle cx="690" cy="430" r="4"/>
    <circle cx="1080" cy="300" r="3"/>
    <circle cx="1320" cy="560" r="3.5"/>
    <circle cx="420" cy="560" r="3"/>
    <circle cx="780" cy="710" r="4"/>
    <circle cx="1140" cy="620" r="3"/>
    <circle cx="220" cy="780" r="3"/>
    <circle cx="540" cy="610" r="3"/>
  </g>
</svg>
