<svg xmlns="http://www.w3.org/2000/svg" viewBox="0 0 800 600">
<defs>
  <radialGradient id="gbg" cx="50%" cy="50%" r="75%">
    <stop offset="0%" stop-color="#0d0d0d"/><stop offset="100%" stop-color="#030303"/>
  </radialGradient>
  <radialGradient id="gglow" cx="50%" cy="50%" r="50%">
    <stop offset="0%" stop-color="#00E676" stop-opacity="0.06"/>
    <stop offset="100%" stop-color="#00E676" stop-opacity="0"/>
  </radialGradient>
  <linearGradient id="barGrad" x1="0" y1="1" x2="0" y2="0">
    <stop offset="0%" stop-color="#00E676" stop-opacity="0.05"/>
    <stop offset="100%" stop-color="#00E676" stop-opacity="0.3"/>
  </linearGradient>
  <filter id="ggf"><feGaussianBlur stdDeviation="1.5"/></filter>
</defs>
<rect width="800" height="600" fill="url(#gbg)"/>
<rect width="800" height="600" fill="url(#gglow)"/>
<!-- Bento grid layout -->
<g stroke="#00E676" stroke-opacity="0.08" stroke-width="0.5" fill="none">
  <!-- Grid lines -->
  <line x1="400" y1="0" x2="400" y2="600"/>
  <line x1="0" y1="300" x2="800" y2="300"/>
  <line x1="0" y1="150" x2="800" y2="150"/>
  <line x1="0" y1="450" x2="800" y2="450"/>
  <line x1="200" y1="0" x2="200" y2="600"/>
  <line x1="600" y1="0" x2="600" y2="600"/>
</g>
<!-- Panels -->
<g fill="none" stroke="#00E676" stroke-opacity="0.2" stroke-width="1">
  <!-- Top left - Line graph -->
  <rect x="10" y="10" width="380" height="130" rx="4" fill="#0a1a0a" fill-opacity="0.5"/>
  <text x="20" y="30" fill="#00E676" fill-opacity="0.3" font-family="monospace" font-size="9">THROUGHPUT (MB/s)</text>
  <polyline points="30,79 47,47 64,47 81,64 98,39 115,73 132,40 149,35 166,77 183,36 200,33 217,70 234,100 251,99 268,53 285,26 302,46 319,92 336,82 353,71" stroke="#00E676" stroke-opacity="0.4" stroke-width="1.5" fill="none"/>
  <polygon points="30,120 30,79 47,47 64,47 81,64 98,39 115,73 132,40 149,35 166,77 183,36 200,33 217,70 234,100 251,99 268,53 285,26 302,46 319,92 336,82 353,71 353,120" fill="#00E676" fill-opacity="0.04"/>
  <rect x="410" y="10" width="380" height="130" rx="4" fill="#0a1a0a" fill-opacity="0.5"/>
  <text x="420" y="30" fill="#00E676" fill-opacity="0.3" font-family="monospace" font-size="9">LATENCY P50/P95/P99</text>
  <rect x="420" y="71" width="20" height="49" rx="2" fill="#00E676" fill-opacity="0.21" stroke="#00E676" stroke-opacity="0.15" stroke-width="0.5"/>
  <rect x="450" y="95" width="20" height="25" rx="2" fill="#00E676" fill-opacity="0.13" stroke="#00E676" stroke-opacity="0.15" stroke-width="0.5"/>
  <rect x="480" y="45" width="20" height="75" rx="2" fill="#00E676" fill-opacity="0.30" stroke="#00E676" stroke-opacity="0.15" stroke-width="0.5"/>
  <rect x="510" y="48" width="20" height="72" rx="2" fill="#00E676" fill-opacity="0.29" stroke="#00E676" stroke-opacity="0.15" stroke-width="0.5"/>
  <rect x="540" y="22" width="20" height="98" rx="2" fill="#00E676" fill-opacity="0.38" stroke="#00E676" stroke-opacity="0.15" stroke-width="0.5"/>
  <rect x="570" y="44" width="20" height="76" rx="2" fill="#00E676" fill-opacity="0.30" stroke="#00E676" stroke-opacity="0.15" stroke-width="0.5"/>
  <rect x="600" y="96" width="20" height="24" rx="2" fill="#00E676" fill-opacity="0.13" stroke="#00E676" stroke-opacity="0.15" stroke-width="0.5"/>
  <rect x="630" y="58" width="20" height="62" rx="2" fill="#00E676" fill-opacity="0.26" stroke="#00E676" stroke-opacity="0.15" stroke-width="0.5"/>
  <rect x="660" y="31" width="20" height="89" rx="2" fill="#00E676" fill-opacity="0.35" stroke="#00E676" stroke-opacity="0.15" stroke-width="0.5"/>
  <rect x="690" y="37" width="20" height="83" rx="2" fill="#00E676" fill-opacity="0.33" stroke="#00E676" stroke-opacity="0.15" stroke-width="0.5"/>
  <rect x="720" y="86" width="20" height="34" rx="2" fill="#00E676" fill-opacity="0.16" stroke="#00E676" stroke-opacity="0.15" stroke-width="0.5"/>
  <rect x="750" y="53" width="20" height="67" rx="2" fill="#00E676" fill-opacity="0.27" stroke="#00E676" stroke-opacity="0.15" stroke-width="0.5"/>
  <rect x="10" y="155" width="380" height="285" rx="4" fill="#0a1a0a" fill-opacity="0.5"/>
  <text x="20" y="175" fill="#00E676" fill-opacity="0.3" font-family="monospace" font-size="9">NODE GRAPH // DEPENDENCIES</text>
  <circle cx="80" cy="220" r="15" fill="none" stroke="#00E676" stroke-opacity="0.15" stroke-width="1"/>
  <circle cx="80" cy="220" r="4" fill="#00E676" fill-opacity="0.3"/>
  <circle cx="180" cy="200" r="15" fill="none" stroke="#00E676" stroke-opacity="0.15" stroke-width="1"/>
  <circle cx="180" cy="200" r="4" fill="#00E676" fill-opacity="0.3"/>
  <circle cx="280" cy="250" r="15" fill="none" stroke="#00E676" stroke-opacity="0.15" stroke-width="1"/>
  <circle cx="280" cy="250" r="4" fill="#00E676" fill-opacity="0.3"/>
  <circle cx="100" cy="340" r="15" fill="none" stroke="#00E676" stroke-opacity="0.15" stroke-width="1"/>
  <circle cx="100" cy="340" r="4" fill="#00E676" fill-opacity="0.3"/>
  <circle cx="200" cy="380" r="15" fill="none" stroke="#00E676" stroke-opacity="0.15" stroke-width="1"/>
  <circle cx="200" cy="380" r="4" fill="#00E676" fill-opacity="0.3"/>
  <circle cx="300" cy="320" r="15" fill="none" stroke="#00E676" stroke-opacity="0.15" stroke-width="1"/>
  <circle cx="300" cy="320" r="4" fill="#00E676" fill-opacity="0.3"/>
  <circle cx="350" cy="220" r="15" fill="none" stroke="#00E676" stroke-opacity="0.15" stroke-width="1"/>
  <circle cx="350" cy="220" r="4" fill="#00E676" fill-opacity="0.3"/>
  <circle cx="150" cy="280" r="15" fill="none" stroke="#00E676" stroke-opacity="0.15" stroke-width="1"/>
  <circle cx="150" cy="280" r="4" fill="#00E676" fill-opacity="0.3"/>
  <line x1="80" y1="220" x2="180" y2="200" stroke="#00E676" stroke-opacity="0.08" stroke-width="0.8"/>
  <line x1="80" y1="220" x2="100" y2="340" stroke="#00E676" stroke-opacity="0.08" stroke-width="0.8"/>
  <line x1="180" y1="200" x2="280" y2="250" stroke="#00E676" stroke-opacity="0.08" stroke-width="0.8"/>
  <line x1="180" y1="200" x2="200" y2="380" stroke="#00E676" stroke-opacity="0.08" stroke-width="0.8"/>
  <line x1="280" y1="250" x2="300" y2="320" stroke="#00E676" stroke-opacity="0.08" stroke-width="0.8"/>
  <line x1="280" y1="250" x2="350" y2="220" stroke="#00E676" stroke-opacity="0.08" stroke-width="0.8"/>
  <line x1="100" y1="340" x2="200" y2="380" stroke="#00E676" stroke-opacity="0.08" stroke-width="0.8"/>
  <line x1="100" y1="340" x2="150" y2="280" stroke="#00E676" stroke-opacity="0.08" stroke-width="0.8"/>
  <line x1="200" y1="380" x2="300" y2="320" stroke="#00E676" stroke-opacity="0.08" stroke-width="0.8"/>
  <line x1="300" y1="320" x2="350" y2="220" stroke="#00E676" stroke-opacity="0.08" stroke-width="0.8"/>
  <line x1="350" y1="220" x2="280" y2="250" stroke="#00E676" stroke-opacity="0.08" stroke-width="0.8"/>
  <line x1="150" y1="280" x2="200" y2="380" stroke="#00E676" stroke-opacity="0.08" stroke-width="0.8"/>
  <rect x="410" y="155" width="380" height="285" rx="4" fill="#0a1a0a" fill-opacity="0.5"/>
  <text x="420" y="175" fill="#00E676" fill-opacity="0.3" font-family="monospace" font-size="9">RESOURCE ALLOCATION</text>
  <path d="M600,300 L690.0,300.0 A90,90 0 0,1 600.0,390.0 Z" fill="#00E676" fill-opacity="0.04" stroke="#00E676" stroke-opacity="0.2" stroke-width="0.8"/>
  <text x="678" y="378" text-anchor="middle" fill="#00E676" fill-opacity="0.3" font-family="monospace" font-size="8">CPU</text>
  <path d="M600,300 L600.0,390.0 A90,90 0 0,1 515.4,330.8 Z" fill="#00E676" fill-opacity="0.07" stroke="#00E676" stroke-opacity="0.2" stroke-width="0.8"/>
  <text x="537" y="390" text-anchor="middle" fill="#00E676" fill-opacity="0.3" font-family="monospace" font-size="8">MEM</text>
  <path d="M600,300 L515.4,330.8 A90,90 0 0,1 584.4,211.4 Z" fill="#00E676" fill-opacity="0.10" stroke="#00E676" stroke-opacity="0.2" stroke-width="0.8"/>
  <text x="505" y="245" text-anchor="middle" fill="#00E676" fill-opacity="0.3" font-family="monospace" font-size="8">IO</text>
  <path d="M600,300 L584.4,211.4 A90,90 0 0,1 690.0,300.0 Z" fill="#00E676" fill-opacity="0.13" stroke="#00E676" stroke-opacity="0.2" stroke-width="0.8"/>
  <text x="671" y="216" text-anchor="middle" fill="#00E676" fill-opacity="0.3" font-family="monospace" font-size="8">NET</text>
  <circle cx="600" cy="300" r="35" fill="#050505"/>
  <rect x="10" y="455" width="780" height="135" rx="4" fill="#0a1a0a" fill-opacity="0.5"/>
  <text x="20" y="475" fill="#00E676" fill-opacity="0.3" font-family="monospace" font-size="9">EVENT CORRELATION HEATMAP (24h)</text>
  <rect x="30" y="485" width="14" height="16" rx="1" fill="#00E676" fill-opacity="0.02" stroke="#00E676" stroke-opacity="0.04" stroke-width="0.3"/>
  <rect x="48" y="485" width="14" height="16" rx="1" fill="#00E676" fill-opacity="0.17" stroke="#00E676" stroke-opacity="0.04" stroke-width="0.3"/>
  <rect x="66" y="485" width="14" height="16" rx="1" fill="#00E676" fill-opacity="0.04" stroke="#00E676" stroke-opacity="0.04" stroke-width="0.3"/>
  <rect x="84" y="485" width="14" height="16" rx="1" fill="#00E676" fill-opacity="0.18" stroke="#00E676" stroke-opacity="0.04" stroke-width="0.3"/>
  <rect x="102" y="485" width="14" height="16" rx="1" fill="#00E676" fill-opacity="0.02" stroke="#00E676" stroke-opacity="0.04" stroke-width="0.3"/>
  <rect x="120" y="485" width="14" height="16" rx="1" fill="#00E676" fill-opacity="0.05" stroke="#00E676" stroke-opacity="0.04" stroke-width="0.3"/>
  <rect x="138" y="485" width="14" height="16" rx="1" fill="#00E676" fill-opacity="0.17" stroke="#00E676" stroke-opacity="0.04" stroke-width="0.3"/>
  <rect x="156" y="485" width="14" height="16" rx="1" fill="#00E676" fill-opacity="0.10" stroke="#00E676" stroke-opacity="0.04" stroke-width="0.3"/>
  <rect x="174" y="485" width="14" height="16" rx="1" fill="#00E676" fill-opacity="0.05" stroke="#00E676" stroke-opacity="0.04" stroke-width="0.3"/>
  <rect x="192" y="485" width="14" height="16" rx="1" fill="#00E676" fill-opacity="0.15" stroke="#00E676" stroke-opacity="0.04" stroke-width="0.3"/>
  <rect x="210" y="485" width="14" height="16" rx="1" fill="#00E676" fill-opacity="0.11" stroke="#00E676" stroke-opacity="0.04" stroke-width="0.3"/>
  <rect x="228" y="485" width="14" height="16" rx="1" fill="#00E676" fill-opacity="0.18" stroke="#00E676" stroke-opacity="0.04" stroke-width="0.3"/>
  <rect x="246" y="485" width="14" height="16" rx="1" fill="#00E676" fill-opacity="0.03" stroke="#00E676" stroke-opacity="0.04" stroke-width="0.3"/>
  <rect x="264" y="485" width="14" height="16" rx="1" fill="#00E676" fill-opacity="0.06" stroke="#00E676" stroke-opacity="0.04" stroke-width="0.3"/>
  <rect x="282" y="485" width="14" height="16" rx="1" fill="#00E676" fill-opacity="0.15" stroke="#00E676" stroke-opacity="0.04" stroke-width="0.3"/>
  <rect x="300" y="485" width="14" height="16" rx="1" fill="#00E676" fill-opacity="0.18" stroke="#00E676" stroke-opacity="0.04" stroke-width="0.3"/>
  <rect x="318" y="485" width="14" height="16" rx="1" fill="#00E676" fill-opacity="0.15" stroke="#00E676" stroke-opacity="0.04" stroke-width="0.3"/>
  <rect x="336" y="485" width="14" height="16" rx="1" fill="#00E676" fill-opacity="0.21" stroke="#00E676" stroke-opacity="0.04" stroke-width="0.3"/>
  <rect x="354" y="485" width="14" height="16" rx="1" fill="#00E676" fill-opacity="0.20" stroke="#00E676" stroke-opacity="0.04" stroke-width="0.3"/>
  <rect x="372" y="485" width="14" height="16" rx="1" fill="#00E676" fill-opacity="0.22" stroke="#00E676" stroke-opacity="0.04" stroke-width="0.3"/>
  <rect x="390" y="485" width="14" height="16" rx="1" fill="#00E676" fill-opacity="0.03" stroke="#00E676" stroke-opacity="0.04" stroke-width="0.3"/>
  <rect x="408" y="485" width="14" height="16" rx="1" fill="#00E676" fill-opacity="0.13" stroke="#00E676" stroke-opacity="0.04" stroke-width="0.3"/>
  <rect x="426" y="485" width="14" height="16" rx="1" fill="#00E676" fill-opacity="0.13" stroke="#00E676" stroke-opacity="0.04" stroke-width="0.3"/>
  <rect x="444" y="485" width="14" height="16" rx="1" fill="#00E676" fill-opacity="0.10" stroke="#00E676" stroke-opacity="0.04" stroke-width="0.3"/>
  <rect x="462" y="485" width="14" height="16" rx="1" fill="#00E676" fill-opacity="0.09" stroke="#00E676" stroke-opacity="0.04" stroke-width="0.3"/>
  <rect x="480" y="485" width="14" height="16" rx="1" fill="#00E676" fill-opacity="0.05" stroke="#00E676" stroke-opacity="0.04" stroke-width="0.3"/>
  <rect x="498" y="485" width="14" height="16" rx="1" fill="#00E676" fill-opacity="0.13" stroke="#00E676" stroke-opacity="0.04" stroke-width="0.3"/>
  <rect x="516" y="485" width="14" height="16" rx="1" fill="#00E676" fill-opacity="0.08" stroke="#00E676" stroke-opacity="0.04" stroke-width="0.3"/>
  <rect x="534" y="485" width="14" height="16" rx="1" fill="#00E676" fill-opacity="0.21" stroke="#00E676" stroke-opacity="0.04" stroke-width="0.3"/>
  <rect x="552" y="485" width="14" height="16" rx="1" fill="#00E676" fill-opacity="0.12" stroke="#00E676" stroke-opacity="0.04" stroke-width="0.3"/>
  <rect x="570" y="485" width="14" height="16" rx="1" fill="#00E676" fill-opacity="0.08" stroke="#00E676" stroke-opacity="0.04" stroke-width="0.3"/>
  <rect x="588" y="485" width="14" height="16" rx="1" fill="#00E676" fill-opacity="0.12" stroke="#00E676" stroke-opacity="0.04" stroke-width="0.3"/>
  <rect x="606" y="485" width="14" height="16" rx="1" fill="#00E676" fill-opacity="0.07" stroke="#00E676" stroke-opacity="0.04" stroke-width="0.3"/>
  <rect x="624" y="485" width="14" height="16" rx="1" fill="#00E676" fill-opacity="0.19" stroke="#00E676" stroke-opacity="0.04" stroke-width="0.3"/>
  <rect x="642" y="485" width="14" height="16" rx="1" fill="#00E676" fill-opacity="0.05" stroke="#00E676" stroke-opacity="0.04" stroke-width="0.3"/>
  <rect x="660" y="485" width="14" height="16" rx="1" fill="#00E676" fill-opacity="0.16" stroke="#00E676" stroke-opacity="0.04" stroke-width="0.3"/>
  <rect x="678" y="485" width="14" height="16" rx="1" fill="#00E676" fill-opacity="0.22" stroke="#00E676" stroke-opacity="0.04" stroke-width="0.3"/>
  <rect x="696" y="485" width="14" height="16" rx="1" fill="#00E676" fill-opacity="0.02" stroke="#00E676" stroke-opacity="0.04" stroke-width="0.3"/>
  <rect x="714" y="485" width="14" height="16" rx="1" fill="#00E676" fill-opacity="0.03" stroke="#00E676" stroke-opacity="0.04" stroke-width="0.3"/>
  <rect x="732" y="485" width="14" height="16" rx="1" fill="#00E676" fill-opacity="0.14" stroke="#00E676" stroke-opacity="0.04" stroke-width="0.3"/>
  <rect x="30" y="505" width="14" height="16" rx="1" fill="#00E676" fill-opacity="0.12" stroke="#00E676" stroke-opacity="0.04" stroke-width="0.3"/>
  <rect x="48" y="505" width="14" height="16" rx="1" fill="#00E676" fill-opacity="0.13" stroke="#00E676" stroke-opacity="0.04" stroke-width="0.3"/>
  <rect x="66" y="505" width="14" height="16" rx="1" fill="#00E676" fill-opacity="0.08" stroke="#00E676" stroke-opacity="0.04" stroke-width="0.3"/>
  <rect x="84" y="505" width="14" height="16" rx="1" fill="#00E676" fill-opacity="0.22" stroke="#00E676" stroke-opacity="0.04" stroke-width="0.3"/>
  <rect x="102" y="505" width="14" height="16" rx="1" fill="#00E676" fill-opacity="0.04" stroke="#00E676" stroke-opacity="0.04" stroke-width="0.3"/>
  <rect x="120" y="505" width="14" height="16" rx="1" fill="#00E676" fill-opacity="0.15" stroke="#00E676" stroke-opacity="0.04" stroke-width="0.3"/>
  <rect x="138" y="505" width="14" height="16" rx="1" fill="#00E676" fill-opacity="0.15" stroke="#00E676" stroke-opacity="0.04" stroke-width="0.3"/>
  <rect x="156" y="505" width="14" height="16" rx="1" fill="#00E676" fill-opacity="0.19" stroke="#00E676" stroke-opacity="0.04" stroke-width="0.3"/>
  <rect x="174" y="505" width="14" height="16" rx="1" fill="#00E676" fill-opacity="0.09" stroke="#00E676" stroke-opacity="0.04" stroke-width="0.3"/>
  <rect x="192" y="505" width="14" height="16" rx="1" fill="#00E676" fill-opacity="0.17" stroke="#00E676" stroke-opacity="0.04" stroke-width="0.3"/>
  <rect x="210" y="505" width="14" height="16" rx="1" fill="#00E676" fill-opacity="0.21" stroke="#00E676" stroke-opacity="0.04" stroke-width="0.3"/>
  <rect x="228" y="505" width="14" height="16" rx="1" fill="#00E676" fill-opacity="0.07" stroke="#00E676" stroke-opacity="0.04" stroke-width="0.3"/>
  <rect x="246" y="505" width="14" height="16" rx="1" fill="#00E676" fill-opacity="0.05" stroke="#00E676" stroke-opacity="0.04" stroke-width="0.3"/>
  <rect x="264" y="505" width="14" height="16" rx="1" fill="#00E676" fill-opacity="0.20" stroke="#00E676" stroke-opacity="0.04" stroke-width="0.3"/>
  <rect x="282" y="505" width="14" height="16" rx="1" fill="#00E676" fill-opacity="0.05" stroke="#00E676" stroke-opacity="0.04" stroke-width="0.3"/>
  <rect x="300" y="505" width="14" height="16" rx="1" fill="#00E676" fill-opacity="0.11" stroke="#00E676" stroke-opacity="0.04" stroke-width="0.3"/>
  <rect x="318" y="505" width="14" height="16" rx="1" fill="#00E676" fill-opacity="0.05" stroke="#00E676" stroke-opacity="0.04" stroke-width="0.3"/>
  <rect x="336" y="505" width="14" height="16" rx="1" fill="#00E676" fill-opacity="0.03" stroke="#00E676" stroke-opacity="0.04" stroke-width="0.3"/>
  <rect x="354" y="505" width="14" height="16" rx="1" fill="#00E676" fill-opacity="0.12" stroke="#00E676" stroke-opacity="0.04" stroke-width="0.3"/>
  <rect x="372" y="505" width="14" height="16" rx="1" fill="#00E676" fill-opacity="0.15" stroke="#00E676" stroke-opacity="0.04" stroke-width="0.3"/>
  <rect x="390" y="505" width="14" height="16" rx="1" fill="#00E676" fill-opacity="0.07" stroke="#00E676" stroke-opacity="0.04" stroke-width="0.3"/>
  <rect x="408" y="505" width="14" height="16" rx="1" fill="#00E676" fill-opacity="0.20" stroke="#00E676" stroke-opacity="0.04" stroke-width="0.3"/>
  <rect x="426" y="505" width="14" height="16" rx="1" fill="#00E676" fill-opacity="0.05" stroke="#00E676" stroke-opacity="0.04" stroke-width="0.3"/>
  <rect x="444" y="505" width="14" height="16" rx="1" fill="#00E676" fill-opacity="0.17" stroke="#00E676" stroke-opacity="0.04" stroke-width="0.3"/>
  <rect x="462" y="505" width="14" height="16" rx="1" fill="#00E676" fill-opacity="0.02" stroke="#00E676" stroke-opacity="0.04" stroke-width="0.3"/>
  <rect x="480" y="505" width="14" height="16" rx="1" fill="#00E676" fill-opacity="0.09" stroke="#00E676" stroke-opacity="0.04" stroke-width="0.3"/>
  <rect x="498" y="505" width="14" height="16" rx="1" fill="#00E676" fill-opacity="0.12" stroke="#00E676" stroke-opacity="0.04" stroke-width="0.3"/>
  <rect x="516" y="505" width="14" height="16" rx="1" fill="#00E676" fill-opacity="0.15" stroke="#00E676" stroke-opacity="0.04" stroke-width="0.3"/>
  <rect x="534" y="505" width="14" height="16" rx="1" fill="#00E676" fill-opacity="0.21" stroke="#00E676" stroke-opacity="0.04" stroke-width="0.3"/>
  <rect x="552" y="505" width="14" height="16" rx="1" fill="#00E676" fill-opacity="0.07" stroke="#00E676" stroke-opacity="0.04" stroke-width="0.3"/>
  <rect x="570" y="505" width="14" height="16" rx="1" fill="#00E676" fill-opacity="0.13" stroke="#00E676" stroke-opacity="0.04" stroke-width="0.3"/>
  <rect x="588" y="505" width="14" height="16" rx="1" fill="#00E676" fill-opacity="0.11" stroke="#00E676" stroke-opacity="0.04" stroke-width="0.3"/>
  <rect x="606" y="505" width="14" height="16" rx="1" fill="#00E676" fill-opacity="0.10" stroke="#00E676" stroke-opacity="0.04" stroke-width="0.3"/>
  <rect x="624" y="505" width="14" height="16" rx="1" fill="#00E676" fill-opacity="0.17" stroke="#00E676" stroke-opacity="0.04" stroke-width="0.3"/>
  <rect x="642" y="505" width="14" height="16" rx="1" fill="#00E676" fill-opacity="0.03" stroke="#00E676" stroke-opacity="0.04" stroke-width="0.3"/>
  <rect x="660" y="505" width="14" height="16" rx="1" fill="#00E676" fill-opacity="0.08" stroke="#00E676" stroke-opacity="0.04" stroke-width="0.3"/>
  <rect x="678" y="505" width="14" height="16" rx="1" fill="#00E676" fill-opacity="0.19" stroke="#00E676" stroke-opacity="0.04" stroke-width="0.3"/>
  <rect x="696" y="505" width="14" height="16" rx="1" fill="#00E676" fill-opacity="0.15" stroke="#00E676" stroke-opacity="0.04" stroke-width="0.3"/>
  <rect x="714" y="505" width="14" height="16" rx="1" fill="#00E676" fill-opacity="0.03" stroke="#00E676" stroke-opacity="0.04" stroke-width="0.3"/>
  <rect x="732" y="505" width="14" height="16" rx="1" fill="#00E676" fill-opacity="0.07" stroke="#00E676" stroke-opacity="0.04" stroke-width="0.3"/>
  <rect x="30" y="525" width="14" height="16" rx="1" fill="#00E676" fill-opacity="0.10" stroke="#00E676" stroke-opacity="0.04" stroke-width="0.3"/>
  <rect x="48" y="525" width="14" height="16" rx="1" fill="#00E676" fill-opacity="0.19" stroke="#00E676" stroke-opacity="0.04" stroke-width="0.3"/>
  <rect x="66" y="525" width="14" height="16" rx="1" fill="#00E676" fill-opacity="0.15" stroke="#00E676" stroke-opacity="0.04" stroke-width="0.3"/>
  <rect x="84" y="525" width="14" height="16" rx="1" fill="#00E676" fill-opacity="0.05" stroke="#00E676" stroke-opacity="0.04" stroke-width="0.3"/>
  <rect x="102" y="525" width="14" height="16" rx="1" fill="#00E676" fill-opacity="0.05" stroke="#00E676" stroke-opacity="0.04" stroke-width="0.3"/>
  <rect x="120" y="525" width="14" height="16" rx="1" fill="#00E676" fill-opacity="0.17" stroke="#00E676" stroke-opacity="0.04" stroke-width="0.3"/>
  <rect x="138" y="525" width="14" height="16" rx="1" fill="#00E676" fill-opacity="0.03" stroke="#00E676" stroke-opacity="0.04" stroke-width="0.3"/>
  <rect x="156" y="525" width="14" height="16" rx="1" fill="#00E676" fill-opacity="0.05" stroke="#00E676" stroke-opacity="0.04" stroke-width="0.3"/>
  <rect x="174" y="525" width="14" height="16" rx="1" fill="#00E676" fill-opacity="0.15" stroke="#00E676" stroke-opacity="0.04" stroke-width="0.3"/>
  <rect x="192" y="525" width="14" height="16" rx="1" fill="#00E676" fill-opacity="0.20" stroke="#00E676" stroke-opacity="0.04" stroke-width="0.3"/>
  <rect x="210" y="525" width="14" height="16" rx="1" fill="#00E676" fill-opacity="0.12" stroke="#00E676" stroke-opacity="0.04" stroke-width="0.3"/>
  <rect x="228" y="525" width="14" height="16" rx="1" fill="#00E676" fill-opacity="0.21" stroke="#00E676" stroke-opacity="0.04" stroke-width="0.3"/>
  <rect x="246" y="525" width="14" height="16" rx="1" fill="#00E676" fill-opacity="0.20" stroke="#00E676" stroke-opacity="0.04" stroke-width="0.3"/>
  <rect x="264" y="525" width="14" height="16" rx="1" fill="#00E676" fill-opacity="0.09" stroke="#00E676" stroke-opacity="0.04" stroke-width="0.3"/>
  <rect x="282" y="525" width="14" height="16" rx="1" fill="#00E676" fill-opacity="0.05" stroke="#00E676" stroke-opacity="0.04" stroke-width="0.3"/>
  <rect x="300" y="525" width="14" height="16" rx="1" fill="#00E676" fill-opacity="0.09" stroke="#00E676" stroke-opacity="0.04" stroke-width="0.3"/>
  <rect x="318" y="525" width="14" height="16" rx="1" fill="#00E676" fill-opacity="0.17" stroke="#00E676" stroke-opacity="0.04" stroke-width="0.3"/>
  <rect x="336" y="525" width="14" height="16" rx="1" fill="#00E676" fill-opacity="0.12" stroke="#00E676" stroke-opacity="0.04" stroke-width="0.3"/>
  <rect x="354" y="525" width="14" height="16" rx="1" fill="#00E676" fill-opacity="0.20" stroke="#00E676" stroke-opacity="0.04" stroke-width="0.3"/>
  <rect x="372" y="525" width="14" height="16" rx="1" fill="#00E676" fill-opacity="0.12" stroke="#00E676" stroke-opacity="0.04" stroke-width="0.3"/>
  <rect x="390" y="525" width="14" height="16" rx="1" fill="#00E676" fill-opacity="0.05" stroke="#00E676" stroke-opacity="0.04" stroke-width="0.3"/>
  <rect x="408" y="525" width="14" height="16" rx="1" fill="#00E676" fill-opacity="0.14" stroke="#00E676" stroke-opacity="0.04" stroke-width="0.3"/>
  <rect x="426" y="525" width="14" height="16" rx="1" fill="#00E676" fill-opacity="0.05" stroke="#00E676" stroke-opacity="0.04" stroke-width="0.3"/>
  <rect x="444" y="525" width="14" height="16" rx="1" fill="#00E676" fill-opacity="0.16" stroke="#00E676" stroke-opacity="0.04" stroke-width="0.3"/>
  <rect x="462" y="525" width="14" height="16" rx="1" fill="#00E676" fill-opacity="0.10" stroke="#00E676" stroke-opacity="0.04" stroke-width="0.3"/>
  <rect x="480" y="525" width="14" height="16" rx="1" fill="#00E676" fill-opacity="0.05" stroke="#00E676" stroke-opacity="0.04" stroke-width="0.3"/>
  <rect x="498" y="525" width="14" height="16" rx="1" fill="#00E676" fill-opacity="0.16" stroke="#00E676" stroke-opacity="0.04" stroke-width="0.3"/>
  <rect x="516" y="525" width="14" height="16" rx="1" fill="#00E676" fill-opacity="0.07" stroke="#00E676" stroke-opacity="0.04" stroke-width="0.3"/>
  <rect x="534" y="525" width="14" height="16" rx="1" fill="#00E676" fill-opacity="0.09" stroke="#00E676" stroke-opacity="0.04" stroke-width="0.3"/>
  <rect x="552" y="525" width="14" height="16" rx="1" fill="#00E676" fill-opacity="0.07" stroke="#00E676" stroke-opacity="0.04" stroke-width="0.3"/>
  <rect x="570" y="525" width="14" height="16" rx="1" fill="#00E676" fill-opacity="0.21" stroke="#00E676" stroke-opacity="0.04" stroke-width="0.3"/>
  <rect x="588" y="525" width="14" height="16" rx="1" fill="#00E676" fill-opacity="0.10" stroke="#00E676" stroke-opacity="0.04" stroke-width="0.3"/>
  <rect x="606" y="525" width="14" height="16" rx="1" fill="#00E676" fill-opacity="0.16" stroke="#00E676" stroke-opacity="0.04" stroke-width="0.3"/>
  <rect x="624" y="525" width="14" height="16" rx="1" fill="#00E676" fill-opacity="0.17" stroke="#00E676" stroke-opacity="0.04" stroke-width="0.3"/>
  <rect x="642" y="525" width="14" height="16" rx="1" fill="#00E676" fill-opacity="0.18" stroke="#00E676" stroke-opacity="0.04" stroke-width="0.3"/>
  <rect x="660" y="525" width="14" height="16" rx="1" fill="#00E676" fill-opacity="0.05" stroke="#00E676" stroke-opacity="0.04" stroke-width="0.3"/>
  <rect x="678" y="525" width="14" height="16" rx="1" fill="#00E676" fill-opacity="0.05" stroke="#00E676" stroke-opacity="0.04" stroke-width="0.3"/>
  <rect x="696" y="525" width="14" height="16" rx="1" fill="#00E676" fill-opacity="0.10" stroke="#00E676" stroke-opacity="0.04" stroke-width="0.3"/>
  <rect x="714" y="525" width="14" height="16" rx="1" fill="#00E676" fill-opacity="0.06" stroke="#00E676" stroke-opacity="0.04" stroke-width="0.3"/>
  <rect x="732" y="525" width="14" height="16" rx="1" fill="#00E676" fill-opacity="0.15" stroke="#00E676" stroke-opacity="0.04" stroke-width="0.3"/>
  <rect x="30" y="545" width="14" height="16" rx="1" fill="#00E676" fill-opacity="0.18" stroke="#00E676" stroke-opacity="0.04" stroke-width="0.3"/>
  <rect x="48" y="545" width="14" height="16" rx="1" fill="#00E676" fill-opacity="0.03" stroke="#00E676" stroke-opacity="0.04" stroke-width="0.3"/>
  <rect x="66" y="545" width="14" height="16" rx="1" fill="#00E676" fill-opacity="0.04" stroke="#00E676" stroke-opacity="0.04" stroke-width="0.3"/>
  <rect x="84" y="545" width="14" height="16" rx="1" fill="#00E676" fill-opacity="0.08" stroke="#00E676" stroke-opacity="0.04" stroke-width="0.3"/>
  <rect x="102" y="545" width="14" height="16" rx="1" fill="#00E676" fill-opacity="0.08" stroke="#00E676" stroke-opacity="0.04" stroke-width="0.3"/>
  <rect x="120" y="545" width="14" height="16" rx="1" fill="#00E676" fill-opacity="0.21" stroke="#00E676" stroke-opacity="0.04" stroke-width="0.3"/>
  <rect x="138" y="545" width="14" height="16" rx="1" fill="#00E676" fill-opacity="0.10" stroke="#00E676" stroke-opacity="0.04" stroke-width="0.3"/>
  <rect x="156" y="545" width="14" height="16" rx="1" fill="#00E676" fill-opacity="0.20" stroke="#00E676" stroke-opacity="0.04" stroke-width="0.3"/>
  <rect x="174" y="545" width="14" height="16" rx="1" fill="#00E676" fill-opacity="0.14" stroke="#00E676" stroke-opacity="0.04" stroke-width="0.3"/>
  <rect x="192" y="545" width="14" height="16" rx="1" fill="#00E676" fill-opacity="0.06" stroke="#00E676" stroke-opacity="0.04" stroke-width="0.3"/>
  <rect x="210" y="545" width="14" height="16" rx="1" fill="#00E676" fill-opacity="0.19" stroke="#00E676" stroke-opacity="0.04" stroke-width="0.3"/>
  <rect x="228" y="545" width="14" height="16" rx="1" fill="#00E676" fill-opacity="0.06" stroke="#00E676" stroke-opacity="0.04" stroke-width="0.3"/>
  <rect x="246" y="545" width="14" height="16" rx="1" fill="#00E676" fill-opacity="0.17" stroke="#00E676" stroke-opacity="0.04" stroke-width="0.3"/>
  <rect x="264" y="545" width="14" height="16" rx="1" fill="#00E676" fill-opacity="0.17" stroke="#00E676" stroke-opacity="0.04" stroke-width="0.3"/>
  <rect x="282" y="545" width="14" height="16" rx="1" fill="#00E676" fill-opacity="0.14" stroke="#00E676" stroke-opacity="0.04" stroke-width="0.3"/>
  <rect x="300" y="545" width="14" height="16" rx="1" fill="#00E676" fill-opacity="0.12" stroke="#00E676" stroke-opacity="0.04" stroke-width="0.3"/>
  <rect x="318" y="545" width="14" height="16" rx="1" fill="#00E676" fill-opacity="0.17" stroke="#00E676" stroke-opacity="0.04" stroke-width="0.3"/>
  <rect x="336" y="545" width="14" height="16" rx="1" fill="#00E676" fill-opacity="0.03" stroke="#00E676" stroke-opacity="0.04" stroke-width="0.3"/>
  <rect x="354" y="545" width="14" height="16" rx="1" fill="#00E676" fill-opacity="0.21" stroke="#00E676" stroke-opacity="0.04" stroke-width="0.3"/>
  <rect x="372" y="545" width="14" height="16" rx="1" fill="#00E676" fill-opacity="0.10" stroke="#00E676" stroke-opacity="0.04" stroke-width="0.3"/>
  <rect x="390" y="545" width="14" height="16" rx="1" fill="#00E676" fill-opacity="0.19" stroke="#00E676" stroke-opacity="0.04" stroke-width="0.3"/>
  <rect x="408" y="545" width="14" height="16" rx="1" fill="#00E676" fill-opacity="0.10" stroke="#00E676" stroke-opacity="0.04" stroke-width="0.3"/>
  <rect x="426" y="545" width="14" height="16" rx="1" fill="#00E676" fill-opacity="0.13" stroke="#00E676" stroke-opacity="0.04" stroke-width="0.3"/>
  <rect x="444" y="545" width="14" height="16" rx="1" fill="#00E676" fill-opacity="0.19" stroke="#00E676" stroke-opacity="0.04" stroke-width="0.3"/>
  <rect x="462" y="545" width="14" height="16" rx="1" fill="#00E676" fill-opacity="0.07" stroke="#00E676" stroke-opacity="0.04" stroke-width="0.3"/>
  <rect x="480" y="545" width="14" height="16" rx="1" fill="#00E676" fill-opacity="0.21" stroke="#00E676" stroke-opacity="0.04" stroke-width="0.3"/>
  <rect x="498" y="545" width="14" height="16" rx="1" fill="#00E676" fill-opacity="0.14" stroke="#00E676" stroke-opacity="0.04" stroke-width="0.3"/>
  <rect x="516" y="545" width="14" height="16" rx="1" fill="#00E676" fill-opacity="0.17" stroke="#00E676" stroke-opacity="0.04" stroke-width="0.3"/>
  <rect x="534" y="545" width="14" height="16" rx="1" fill="#00E676" fill-opacity="0.07" stroke="#00E676" stroke-opacity="0.04" stroke-width="0.3"/>
  <rect x="552" y="545" width="14" height="16" rx="1" fill="#00E676" fill-opacity="0.05" stroke="#00E676" stroke-opacity="0.04" stroke-width="0.3"/>
  <rect x="570" y="545" width="14" height="16" rx="1" fill="#00E676" fill-opacity="0.17" stroke="#00E676" stroke-opacity="0.04" stroke-width="0.3"/>
  <rect x="588" y="545" width="14" height="16" rx="1" fill="#00E676" fill-opacity="0.22" stroke="#00E676" stroke-opacity="0.04" stroke-width="0.3"/>
  <rect x="606" y="545" width="14" height="16" rx="1" fill="#00E676" fill-opacity="0.18" stroke="#00E676" stroke-opacity="0.04" stroke-width="0.3"/>
  <rect x="624" y="545" width="14" height="16" rx="1" fill="#00E676" fill-opacity="0.18" stroke="#00E676" stroke-opacity="0.04" stroke-width="0.3"/>
  <rect x="642" y="545" width="14" height="16" rx="1" fill="#00E676" fill-opacity="0.12" stroke="#00E676" stroke-opacity="0.04" stroke-width="0.3"/>
  <rect x="660" y="545" width="14" height="16" rx="1" fill="#00E676" fill-opacity="0.13" stroke="#00E676" stroke-opacity="0.04" stroke-width="0.3"/>
  <rect x="678" y="545" width="14" height="16" rx="1" fill="#00E676" fill-opacity="0.13" stroke="#00E676" stroke-opacity="0.04" stroke-width="0.3"/>
  <rect x="696" y="545" width="14" height="16" rx="1" fill="#00E676" fill-opacity="0.03" stroke="#00E676" stroke-opacity="0.04" stroke-width="0.3"/>
  <rect x="714" y="545" width="14" height="16" rx="1" fill="#00E676" fill-opacity="0.14" stroke="#00E676" stroke-opacity="0.04" stroke-width="0.3"/>
  <rect x="732" y="545" width="14" height="16" rx="1" fill="#00E676" fill-opacity="0.08" stroke="#00E676" stroke-opacity="0.04" stroke-width="0.3"/>
  <rect x="30" y="565" width="14" height="16" rx="1" fill="#00E676" fill-opacity="0.12" stroke="#00E676" stroke-opacity="0.04" stroke-width="0.3"/>
  <rect x="48" y="565" width="14" height="16" rx="1" fill="#00E676" fill-opacity="0.08" stroke="#00E676" stroke-opacity="0.04" stroke-width="0.3"/>
  <rect x="66" y="565" width="14" height="16" rx="1" fill="#00E676" fill-opacity="0.14" stroke="#00E676" stroke-opacity="0.04" stroke-width="0.3"/>
  <rect x="84" y="565" width="14" height="16" rx="1" fill="#00E676" fill-opacity="0.17" stroke="#00E676" stroke-opacity="0.04" stroke-width="0.3"/>
  <rect x="102" y="565" width="14" height="16" rx="1" fill="#00E676" fill-opacity="0.06" stroke="#00E676" stroke-opacity="0.04" stroke-width="0.3"/>
  <rect x="120" y="565" width="14" height="16" rx="1" fill="#00E676" fill-opacity="0.14" stroke="#00E676" stroke-opacity="0.04" stroke-width="0.3"/>
  <rect x="138" y="565" width="14" height="16" rx="1" fill="#00E676" fill-opacity="0.09" stroke="#00E676" stroke-opacity="0.04" stroke-width="0.3"/>
  <rect x="156" y="565" width="14" height="16" rx="1" fill="#00E676" fill-opacity="0.06" stroke="#00E676" stroke-opacity="0.04" stroke-width="0.3"/>
  <rect x="174" y="565" width="14" height="16" rx="1" fill="#00E676" fill-opacity="0.03" stroke="#00E676" stroke-opacity="0.04" stroke-width="0.3"/>
  <rect x="192" y="565" width="14" height="16" rx="1" fill="#00E676" fill-opacity="0.15" stroke="#00E676" stroke-opacity="0.04" stroke-width="0.3"/>
  <rect x="210" y="565" width="14" height="16" rx="1" fill="#00E676" fill-opacity="0.10" stroke="#00E676" stroke-opacity="0.04" stroke-width="0.3"/>
  <rect x="228" y="565" width="14" height="16" rx="1" fill="#00E676" fill-opacity="0.19" stroke="#00E676" stroke-opacity="0.04" stroke-width="0.3"/>
  <rect x="246" y="565" width="14" height="16" rx="1" fill="#00E676" fill-opacity="0.15" stroke="#00E676" stroke-opacity="0.04" stroke-width="0.3"/>
  <rect x="264" y="565" width="14" height="16" rx="1" fill="#00E676" fill-opacity="0.15" stroke="#00E676" stroke-opacity="0.04" stroke-width="0.3"/>
  <rect x="282" y="565" width="14" height="16" rx="1" fill="#00E676" fill-opacity="0.18" stroke="#00E676" stroke-opacity="0.04" stroke-width="0.3"/>
  <rect x="300" y="565" width="14" height="16" rx="1" fill="#00E676" fill-opacity="0.22" stroke="#00E676" stroke-opacity="0.04" stroke-width="0.3"/>
  <rect x="318" y="565" width="14" height="16" rx="1" fill="#00E676" fill-opacity="0.12" stroke="#00E676" stroke-opacity="0.04" stroke-width="0.3"/>
  <rect x="336" y="565" width="14" height="16" rx="1" fill="#00E676" fill-opacity="0.21" stroke="#00E676" stroke-opacity="0.04" stroke-width="0.3"/>
  <rect x="354" y="565" width="14" height="16" rx="1" fill="#00E676" fill-opacity="0.16" stroke="#00E676" stroke-opacity="0.04" stroke-width="0.3"/>
  <rect x="372" y="565" width="14" height="16" rx="1" fill="#00E676" fill-opacity="0.16" stroke="#00E676" stroke-opacity="0.04" stroke-width="0.3"/>
  <rect x="390" y="565" width="14" height="16" rx="1" fill="#00E676" fill-opacity="0.11" stroke="#00E676" stroke-opacity="0.04" stroke-width="0.3"/>
  <rect x="408" y="565" width="14" height="16" rx="1" fill="#00E676" fill-opacity="0.12" stroke="#00E676" stroke-opacity="0.04" stroke-width="0.3"/>
  <rect x="426" y="565" width="14" height="16" rx="1" fill="#00E676" fill-opacity="0.20" stroke="#00E676" stroke-opacity="0.04" stroke-width="0.3"/>
  <rect x="444" y="565" width="14" height="16" rx="1" fill="#00E676" fill-opacity="0.03" stroke="#00E676" stroke-opacity="0.04" stroke-width="0.3"/>
  <rect x="462" y="565" width="14" height="16" rx="1" fill="#00E676" fill-opacity="0.02" stroke="#00E676" stroke-opacity="0.04" stroke-width="0.3"/>
  <rect x="480" y="565" width="14" height="16" rx="1" fill="#00E676" fill-opacity="0.15" stroke="#00E676" stroke-opacity="0.04" stroke-width="0.3"/>
  <rect x="498" y="565" width="14" height="16" rx="1" fill="#00E676" fill-opacity="0.03" stroke="#00E676" stroke-opacity="0.04" stroke-width="0.3"/>
  <rect x="516" y="565" width="14" height="16" rx="1" fill="#00E676" fill-opacity="0.08" stroke="#00E676" stroke-opacity="0.04" stroke-width="0.3"/>
  <rect x="534" y="565" width="14" height="16" rx="1" fill="#00E676" fill-opacity="0.14" stroke="#00E676" stroke-opacity="0.04" stroke-width="0.3"/>
  <rect x="552" y="565" width="14" height="16" rx="1" fill="#00E676" fill-opacity="0.10" stroke="#00E676" stroke-opacity="0.04" stroke-width="0.3"/>
  <rect x="570" y="565" width="14" height="16" rx="1" fill="#00E676" fill-opacity="0.11" stroke="#00E676" stroke-opacity="0.04" stroke-width="0.3"/>
  <rect x="588" y="565" width="14" height="16" rx="1" fill="#00E676" fill-opacity="0.18" stroke="#00E676" stroke-opacity="0.04" stroke-width="0.3"/>
  <rect x="606" y="565" width="14" height="16" rx="1" fill="#00E676" fill-opacity="0.10" stroke="#00E676" stroke-opacity="0.04" stroke-width="0.3"/>
  <rect x="624" y="565" width="14" height="16" rx="1" fill="#00E676" fill-opacity="0.09" stroke="#00E676" stroke-opacity="0.04" stroke-width="0.3"/>
  <rect x="642" y="565" width="14" height="16" rx="1" fill="#00E676" fill-opacity="0.07" stroke="#00E676" stroke-opacity="0.04" stroke-width="0.3"/>
  <rect x="660" y="565" width="14" height="16" rx="1" fill="#00E676" fill-opacity="0.20" stroke="#00E676" stroke-opacity="0.04" stroke-width="0.3"/>
  <rect x="678" y="565" width="14" height="16" rx="1" fill="#00E676" fill-opacity="0.15" stroke="#00E676" stroke-opacity="0.04" stroke-width="0.3"/>
  <rect x="696" y="565" width="14" height="16" rx="1" fill="#00E676" fill-opacity="0.03" stroke="#00E676" stroke-opacity="0.04" stroke-width="0.3"/>
  <rect x="714" y="565" width="14" height="16" rx="1" fill="#00E676" fill-opacity="0.05" stroke="#00E676" stroke-opacity="0.04" stroke-width="0.3"/>
  <rect x="732" y="565" width="14" height="16" rx="1" fill="#00E676" fill-opacity="0.09" stroke="#00E676" stroke-opacity="0.04" stroke-width="0.3"/>
</g>
<text x="400" y="590" text-anchor="middle" fill="#00E676" fill-opacity="0.3" font-family="monospace" font-size="11">DATA VIS // ANALYTICS // BENTO GRID</text>
<text x="400" y="30" text-anchor="middle" fill="#00E676" fill-opacity="0.4" font-family="monospace" font-size="14" font-weight="bold">GRAPH-BENTO // DATA DASHBOARD</text>
</svg>