<svg xmlns="http://www.w3.org/2000/svg" viewBox="0 0 800 600">
<defs>
  <radialGradient id="kbg" cx="50%" cy="50%" r="75%">
    <stop offset="0%" stop-color="#0d0d0d"/><stop offset="100%" stop-color="#030303"/>
  </radialGradient>
  <radialGradient id="kglow" cx="50%" cy="50%" r="50%">
    <stop offset="0%" stop-color="#00E676" stop-opacity="0.10"/>
    <stop offset="100%" stop-color="#00E676" stop-opacity="0"/>
  </radialGradient>
  <linearGradient id="gearGrad" x1="0" y1="0" x2="1" y2="1">
    <stop offset="0%" stop-color="#1a2a1a"/><stop offset="100%" stop-color="#0a1a0a"/>
  </linearGradient>
  <filter id="kgf"><feGaussianBlur stdDeviation="2" result="b"/><feMerge><feMergeNode in="b"/><feMergeNode in="SourceGraphic"/></feMerge></filter>
</defs>
<rect width="800" height="600" fill="url(#kbg)"/>
<rect width="800" height="600" fill="url(#kglow)"/>
<!-- Circuit traces radiating from center -->
<g stroke="#00E676" stroke-opacity="0.1" stroke-width="0.8" fill="none">
  <path d="M450.0,300.0 L499.0,282.0 L568.0,281.0 L599.0,285.0 L648.0,318.0 L700.0,286.0 L796.0,294.0" />
  <path d="M449.5,307.0 L588.4,331.3 L668.4,319.6 L772.3,368.9" />
  <path d="M448.1,313.8 L547.4,363.5 L626.7,352.3 L708.0,376.0 L790.3,417.7" />
  <path d="M445.7,320.3 L500.0,352.9 L608.4,368.4 L695.8,427.0 L738.1,429.6" />
  <path d="M442.4,326.5 L535.7,374.8 L624.0,415.1 L709.3,506.4" />
  <path d="M438.3,332.1 L519.6,385.8 L599.8,502.6 L695.1,519.3" />
  <path d="M433.5,337.2 L473.3,405.0 L489.1,426.9 L542.9,432.8 L572.7,478.6 L600.5,571.5 L682.3,597.4" />
  <path d="M428.0,341.5 L491.1,429.8 L518.2,486.2 L595.4,527.6 L642.5,617.0" />
  <path d="M421.9,344.9 L430.1,396.1 L465.2,473.2 L530.4,580.4 L588.6,637.5" />
  <path d="M415.5,347.6 L478.4,449.2 L493.4,531.8 L496.4,650.4" />
  <path d="M408.7,349.2 L421.8,448.6 L424.9,568.9 L461.0,656.2" />
  <path d="M401.7,350.0 L415.6,442.9 L407.4,555.8 L417.3,674.8" />
  <path d="M394.8,349.7 L378.1,461.8 L391.5,513.8 L397.9,568.9 L338.3,694.9" />
  <path d="M387.9,348.5 L375.9,458.6 L344.0,485.6 L304.0,565.7 L287.1,656.7" />
  <path d="M381.3,346.4 L331.4,418.9 L298.5,528.3 L271.6,601.8 L262.6,642.3" />
  <path d="M375.0,343.3 L368.5,374.9 L344.0,424.6 L269.5,510.2 L287.0,526.8 L218.5,594.5 L184.0,631.1" />
  <path d="M369.2,339.4 L298.6,398.4 L310.9,416.4 L238.3,478.4 L200.7,542.4 L157.0,621.4" />
  <path d="M364.0,334.7 L318.5,368.9 L306.9,404.1 L249.3,424.4 L186.8,513.6 L138.2,554.8 L119.7,580.0" />
  <path d="M359.5,329.4 L334.1,359.7 L254.6,383.0 L250.1,437.4 L165.6,469.7 L153.1,480.0 L68.6,548.4" />
  <path d="M355.9,323.5 L280.6,372.5 L260.3,400.4 L194.0,431.4 L107.8,441.4 L52.5,476.4" />
  <path d="M353.0,317.1 L275.6,352.7 L142.3,420.3 L28.9,404.0" />
  <path d="M351.1,310.4 L314.5,337.1 L247.0,327.8 L177.4,351.6 L96.9,343.3 L57.3,406.0" />
  <path d="M350.1,303.5 L281.3,334.1 L206.4,308.7 L164.6,339.3 L95.8,301.9 L8.9,320.5" />
  <path d="M350.1,296.5 L277.3,286.7 L231.4,314.8 L167.5,277.0 L100.7,293.2 L67.8,291.3 L8.9,297.5" />
  <path d="M351.1,289.6 L297.4,284.5 L201.7,235.3 L129.0,248.1 L14.3,233.0" />
  <path d="M353.0,282.9 L318.3,282.1 L274.6,260.3 L182.0,222.5 L171.3,232.7 L86.6,200.8 L37.9,140.0" />
  <path d="M355.9,276.5 L260.7,228.9 L143.6,143.2 L67.5,110.6" />
  <path d="M359.5,270.6 L294.8,242.1 L247.1,171.6 L188.3,108.1 L78.6,93.6" />
  <path d="M364.0,265.3 L323.5,232.1 L287.9,198.9 L254.3,169.6 L215.8,135.4 L184.2,82.2 L145.7,24.0" />
  <path d="M369.2,260.6 L335.4,166.6 L243.6,151.6 L205.8,39.6 L173.0,-27.4" />
  <path d="M375.0,256.7 L316.0,150.4 L258.0,71.2 L220.0,0.9" />
  <path d="M381.3,253.6 L338.5,210.4 L307.8,156.3 L327.1,65.1 L277.4,28.9 L238.6,-66.3" />
  <path d="M387.9,251.5 L365.6,176.1 L387.3,122.8 L375.0,89.4 L359.7,62.0 L335.4,-1.3 L302.1,-72.7" />
  <path d="M394.8,250.3 L379.1,154.2 L360.5,73.2 L367.9,10.1 L384.3,-51.9" />
  <path d="M401.7,250.0 L384.7,217.1 L433.6,169.1 L407.5,91.1 L436.4,40.2 L437.3,3.2 L413.3,-67.8" />
  <path d="M408.7,250.8 L397.0,173.5 L422.3,87.3 L454.7,-23.0 L443.0,-83.2" />
  <path d="M415.5,252.4 L406.4,191.1 L460.4,163.8 L436.4,101.5 L496.4,47.2 L487.4,0.9 L487.4,-54.4" />
  <path d="M421.9,255.1 L446.9,181.7 L459.8,114.4 L515.7,105.1 L510.6,12.8 L538.6,-68.5" />
  <path d="M428.0,258.5 L466.9,187.8 L506.8,167.1 L526.7,74.4 L598.6,37.7 L585.5,-1.0" />
  <path d="M433.5,262.8 L454.3,243.0 L489.1,158.1 L544.9,120.2 L567.7,86.4 L629.5,51.5 L628.3,22.6" />
  <path d="M438.3,267.9 L520.5,219.8 L545.7,175.8 L619.9,119.8 L713.1,59.7" />
  <path d="M442.4,273.5 L552.7,228.2 L606.0,172.9 L700.3,120.6" />
  <path d="M445.7,279.7 L500.0,250.1 L571.4,184.6 L689.8,181.0 L758.1,139.4" />
  <path d="M448.1,286.2 L519.4,288.5 L626.7,255.7 L670.0,227.0 L773.3,213.3" />
  <path d="M449.5,293.0 L522.2,300.6 L585.9,297.1 L685.6,279.6 L786.3,244.1" />
</g>
<!-- Gear tooth function -->
<g transform="translate(400,300)" filter="url(#kgf)">
  <path d="M124.00,0.00 L109.58,9.59 L122.12,21.53 L106.25,28.47 L116.52,42.41 L99.69,46.49 L107.39,62.00 L90.11,63.09 L94.99,79.71 L77.78,77.78 L79.71,94.99 L63.09,90.11 L62.00,107.39 L46.49,99.69 L42.41,116.52 L28.47,106.25 L21.53,122.12 L9.59,109.58 L0.00,124.00 L-9.59,109.58 L-21.53,122.12 L-28.47,106.25 L-42.41,116.52 L-46.49,99.69 L-62.00,107.39 L-63.09,90.11 L-79.71,94.99 L-77.78,77.78 L-94.99,79.71 L-90.11,63.09 L-107.39,62.00 L-99.69,46.49 L-116.52,42.41 L-106.25,28.47 L-122.12,21.53 L-109.58,9.59 L-124.00,0.00 L-109.58,-9.59 L-122.12,-21.53 L-106.25,-28.47 L-116.52,-42.41 L-99.69,-46.49 L-107.39,-62.00 L-90.11,-63.09 L-94.99,-79.71 L-77.78,-77.78 L-79.71,-94.99 L-63.09,-90.11 L-62.00,-107.39 L-46.49,-99.69 L-42.41,-116.52 L-28.47,-106.25 L-21.53,-122.12 L-9.59,-109.58 L-0.00,-124.00 L9.59,-109.58 L21.53,-122.12 L28.47,-106.25 L42.41,-116.52 L46.49,-99.69 L62.00,-107.39 L63.09,-90.11 L79.71,-94.99 L77.78,-77.78 L94.99,-79.71 L90.11,-63.09 L107.39,-62.00 L99.69,-46.49 L116.52,-42.41 L106.25,-28.47 L122.12,-21.53 L109.58,-9.59 Z" fill="url(#gearGrad)" stroke="#00E676" stroke-width="2.5" fill-opacity="0.6"/>
  <circle cx="0" cy="0" r="70" fill="none" stroke="#00E676" stroke-opacity="0.3" stroke-width="1.5"/>
  <circle cx="0" cy="0" r="40" fill="none" stroke="#00E676" stroke-width="2"/>
  <circle cx="0" cy="0" r="18" fill="#00E676" fill-opacity="0.3"/>
  <circle cx="0" cy="0" r="8" fill="#00E676"/>
  <line x1="18.0" y1="0.0" x2="40.0" y2="0.0" stroke="#00E676" stroke-width="1.5"/>
  <line x1="12.7" y1="12.7" x2="28.3" y2="28.3" stroke="#00E676" stroke-width="1.5"/>
  <line x1="0.0" y1="18.0" x2="0.0" y2="40.0" stroke="#00E676" stroke-width="1.5"/>
  <line x1="-12.7" y1="12.7" x2="-28.3" y2="28.3" stroke="#00E676" stroke-width="1.5"/>
  <line x1="-18.0" y1="0.0" x2="-40.0" y2="0.0" stroke="#00E676" stroke-width="1.5"/>
  <line x1="-12.7" y1="-12.7" x2="-28.3" y2="-28.3" stroke="#00E676" stroke-width="1.5"/>
  <line x1="-0.0" y1="-18.0" x2="-0.0" y2="-40.0" stroke="#00E676" stroke-width="1.5"/>
  <line x1="12.7" y1="-12.7" x2="28.3" y2="-28.3" stroke="#00E676" stroke-width="1.5"/>
<g transform="translate(180,-80)">
  <path d="M70.00,0.00 L59.26,9.39 L66.57,21.63 L53.46,27.24 L56.63,41.14 L42.43,42.43 L41.14,56.63 L27.24,53.46 L21.63,66.57 L9.39,59.26 L0.00,70.00 L-9.39,59.26 L-21.63,66.57 L-27.24,53.46 L-41.14,56.63 L-42.43,42.43 L-56.63,41.14 L-53.46,27.24 L-66.57,21.63 L-59.26,9.39 L-70.00,0.00 L-59.26,-9.39 L-66.57,-21.63 L-53.46,-27.24 L-56.63,-41.14 L-42.43,-42.43 L-41.14,-56.63 L-27.24,-53.46 L-21.63,-66.57 L-9.39,-59.26 L-0.00,-70.00 L9.39,-59.26 L21.63,-66.57 L27.24,-53.46 L41.14,-56.63 L42.43,-42.43 L56.63,-41.14 L53.46,-27.24 L66.57,-21.63 L59.26,-9.39 Z" fill="url(#gearGrad)" stroke="#00E676" stroke-width="2" fill-opacity="0.5"/>
  <circle cx="0" cy="0" r="20" fill="none" stroke="#00E676" stroke-opacity="0.4" stroke-width="1.5"/>
  <circle cx="0" cy="0" r="8" fill="#00E676" fill-opacity="0.3"/>
</g>
<g transform="translate(-180,80)">
  <path d="M58.00,0.00 L49.04,9.75 L53.59,22.20 L41.57,27.78 L41.01,41.01 L27.78,41.57 L22.20,53.59 L9.75,49.04 L0.00,58.00 L-9.75,49.04 L-22.20,53.59 L-27.78,41.57 L-41.01,41.01 L-41.57,27.78 L-53.59,22.20 L-49.04,9.75 L-58.00,0.00 L-49.04,-9.75 L-53.59,-22.20 L-41.57,-27.78 L-41.01,-41.01 L-27.78,-41.57 L-22.20,-53.59 L-9.75,-49.04 L-0.00,-58.00 L9.75,-49.04 L22.20,-53.59 L27.78,-41.57 L41.01,-41.01 L41.57,-27.78 L53.59,-22.20 L49.04,-9.75 Z" fill="url(#gearGrad)" stroke="#00E676" stroke-width="2" fill-opacity="0.4"/>
  <circle cx="0" cy="0" r="16" fill="none" stroke="#00E676" stroke-opacity="0.4" stroke-width="1.5"/>
  <circle cx="0" cy="0" r="6" fill="#00E676" fill-opacity="0.3"/>
</g>
</g>
<!-- Second page: tiny kernel log / dmesg simulation -->
<g font-family="monospace" font-size="7" fill="#00E676" fill-opacity="0.15">
  <text x="20" y="500">[    0.000000] Linux version 6.6.0-rc1 (build@kernel) #1 SMP PREEMPT_DYNAMIC</text>
  <text x="20" y="510">[    0.000012] Command line: root=/dev/sda1 ro console=tty0 quiet splash</text>
  <text x="20" y="520">[    0.000024] x86/fpu: Supporting XSAVE feature 0x001: 'x87 floating point'</text>
  <text x="20" y="530">[    0.000036] x86/fpu: Supporting XSAVE feature 0x002: 'SSE registers'</text>
  <text x="20" y="540">[    0.000048] x86/fpu: Enabled xstate features 0x3, context size=576</text>
  <text x="20" y="550">[    0.000060] BIOS-provided physical RAM map:</text>
  <text x="20" y="560">[    0.000072] 0x00000000-0x00000fff : Reserved</text>
  <text x="20" y="570">[    0.000084] 0x00001000-0x0009ffff : System RAM</text>
  <text x="20" y="580">[    0.000096] 0x000a0000-0x000bffff : PCI Bus 0000:00</text>
</g>
<!-- Register state display -->
<g font-family="monospace" font-size="7" fill="#00E676" fill-opacity="0.12">
  <text x="620" y="500">EAX: 0x00000001  EBX: 0x00000000</text>
  <text x="620" y="510">ECX: 0x00000000  EDX: 0x00000000</text>
  <text x="620" y="520">ESI: 0x00000000  EDI: 0x00000000</text>
  <text x="620" y="530">EBP: 0x00000000  ESP: 0x00000000</text>
  <text x="620" y="540">CS:  0x00000010  SS:  0x00000018</text>
  <text x="620" y="550">DS:  0x00000020  ES:  0x00000020</text>
  <text x="620" y="560">FS:  0x00000000  GS:  0x00000000</text>
  <text x="620" y="570">CR0: 0x80010033  CR2: 0x00000000</text>
  <text x="620" y="580">CR3: 0x00000000  CR4: 0x00000000</text>
</g>
<!-- Additional circuit traces in corners -->
<g stroke="#00E676" stroke-opacity="0.06" stroke-width="0.6" fill="none">
  <path d="M20,80 L60,80 L60,60 L100,60"/>
  <circle cx="100" cy="60" r="2" fill="#00E676" fill-opacity="0.2"/>
  <path d="M700,80 L740,80 L740,60 L780,60"/>
  <circle cx="780" cy="60" r="2" fill="#00E676" fill-opacity="0.2"/>
  <path d="M20,440 L60,440 L60,460 L100,460"/>
  <circle cx="100" cy="460" r="2" fill="#00E676" fill-opacity="0.2"/>
  <path d="M700,440 L740,440 L740,460 L780,460"/>
  <circle cx="780" cy="460" r="2" fill="#00E676" fill-opacity="0.2"/>
</g>
<!-- Text labels -->
<g fill="#00E676" fill-opacity="0.25" font-family="monospace" font-size="10">
  <text x="30" y="30">KERNEL_SCHED // IRQ</text>
  <text x="30" y="44">SYSCALL_TABLE // MMU</text>
  <text x="30" y="58">TASK_STRUCT // CGROUP</text>
  <text x="620" y="30">KASLR // SMEP/SMAP</text>
  <text x="620" y="44">SElinux // AppArmor</text>
  <text x="620" y="58">eBPF // Kprobes</text>
  <text x="30" y="490">RING 0 // RING 3</text>
  <text x="620" y="490">INTERRUPT_DESC_TABLE</text>
</g>
<text x="400" y="593" text-anchor="middle" fill="#00E676" fill-opacity="0.3" font-family="monospace" font-size="11">KERNEL SPACE // v6.6 LTS // SCHED_DEADLINE</text>
<text x="400" y="30" text-anchor="middle" fill="#00E676" fill-opacity="0.4" font-family="monospace" font-size="14" font-weight="bold">KERNEL-GEAR // SCHEDULER</text>
</svg>