<svg xmlns="http://www.w3.org/2000/svg" viewBox="0 0 800 600">
<defs>
  <radialGradient id="cbg" cx="50%" cy="50%" r="75%">
    <stop offset="0%" stop-color="#0f0f0f"/><stop offset="100%" stop-color="#030303"/>
  </radialGradient>
  <radialGradient id="cglow" cx="50%" cy="50%" r="50%">
    <stop offset="0%" stop-color="#00E676" stop-opacity="0.06"/>
    <stop offset="100%" stop-color="#00E676" stop-opacity="0"/>
  </radialGradient>
  <linearGradient id="chipGrad" x1="0" y1="0" x2="1" y2="1">
    <stop offset="0%" stop-color="#0d1a0d"/><stop offset="50%" stop-color="#050d05"/><stop offset="100%" stop-color="#0d1a0d"/>
  </linearGradient>
  <filter id="cgf"><feGaussianBlur stdDeviation="1.5"/></filter>
</defs>
<rect width="800" height="600" fill="url(#cbg)"/>
<rect width="800" height="600" fill="url(#cglow)"/>
<!-- Background micro traces -->
<g stroke="#00E676" stroke-opacity="0.03" stroke-width="0.5" fill="none">
  <line x1="534" y1="424" x2="531" y2="437"/>
  <line x1="296" y1="178" x2="354" y2="169"/>
  <line x1="112" y1="27" x2="95" y2="45"/>
  <line x1="764" y1="429" x2="748" y2="477"/>
  <line x1="325" y1="411" x2="280" y2="472"/>
  <line x1="63" y1="143" x2="33" y2="101"/>
  <line x1="722" y1="545" x2="785" y2="518"/>
  <line x1="338" y1="552" x2="289" y2="489"/>
  <line x1="316" y1="419" x2="256" y2="468"/>
  <line x1="485" y1="145" x2="509" y2="194"/>
  <line x1="344" y1="18" x2="374" y2="33"/>
  <line x1="585" y1="52" x2="595" y2="-16"/>
  <line x1="488" y1="383" x2="556" y2="304"/>
  <line x1="415" y1="244" x2="364" y2="306"/>
  <line x1="218" y1="254" x2="272" y2="266"/>
  <line x1="59" y1="273" x2="-5" y2="263"/>
  <line x1="197" y1="568" x2="253" y2="629"/>
  <line x1="132" y1="256" x2="130" y2="265"/>
  <line x1="326" y1="174" x2="331" y2="118"/>
  <line x1="588" y1="592" x2="577" y2="597"/>
  <line x1="9" y1="51" x2="18" y2="-25"/>
  <line x1="478" y1="279" x2="519" y2="212"/>
  <line x1="746" y1="203" x2="745" y2="189"/>
  <line x1="76" y1="496" x2="1" y2="574"/>
  <line x1="577" y1="537" x2="532" y2="560"/>
  <line x1="496" y1="400" x2="462" y2="370"/>
  <line x1="257" y1="154" x2="205" y2="128"/>
  <line x1="51" y1="549" x2="49" y2="549"/>
  <line x1="323" y1="50" x2="284" y2="77"/>
  <line x1="95" y1="319" x2="79" y2="342"/>
  <line x1="491" y1="76" x2="549" y2="17"/>
  <line x1="556" y1="247" x2="533" y2="303"/>
  <line x1="271" y1="589" x2="232" y2="584"/>
  <line x1="50" y1="498" x2="120" y2="518"/>
  <line x1="498" y1="227" x2="559" y2="251"/>
  <line x1="528" y1="455" x2="467" y2="492"/>
  <line x1="769" y1="223" x2="747" y2="266"/>
  <line x1="325" y1="193" x2="338" y2="266"/>
  <line x1="29" y1="591" x2="94" y2="643"/>
  <line x1="432" y1="54" x2="436" y2="122"/>
  <line x1="173" y1="569" x2="152" y2="645"/>
  <line x1="320" y1="376" x2="284" y2="350"/>
  <line x1="310" y1="444" x2="321" y2="478"/>
  <line x1="605" y1="95" x2="657" y2="42"/>
  <line x1="535" y1="10" x2="504" y2="77"/>
  <line x1="720" y1="566" x2="685" y2="601"/>
  <line x1="474" y1="456" x2="523" y2="411"/>
  <line x1="549" y1="562" x2="590" y2="597"/>
  <line x1="12" y1="301" x2="-1" y2="268"/>
  <line x1="8" y1="478" x2="14" y2="482"/>
  <line x1="216" y1="53" x2="204" y2="-2"/>
  <line x1="530" y1="15" x2="457" y2="-37"/>
  <line x1="483" y1="308" x2="559" y2="280"/>
  <line x1="798" y1="101" x2="724" y2="137"/>
  <line x1="549" y1="227" x2="476" y2="249"/>
  <line x1="125" y1="438" x2="59" y2="496"/>
  <line x1="61" y1="192" x2="118" y2="179"/>
  <line x1="275" y1="365" x2="283" y2="424"/>
  <line x1="595" y1="426" x2="618" y2="347"/>
  <line x1="538" y1="347" x2="478" y2="275"/>
  <line x1="641" y1="291" x2="644" y2="293"/>
  <line x1="120" y1="342" x2="72" y2="399"/>
  <line x1="249" y1="506" x2="241" y2="539"/>
  <line x1="127" y1="261" x2="110" y2="199"/>
  <line x1="697" y1="430" x2="696" y2="401"/>
  <line x1="494" y1="374" x2="446" y2="348"/>
  <line x1="516" y1="585" x2="474" y2="580"/>
  <line x1="85" y1="446" x2="117" y2="501"/>
  <line x1="397" y1="535" x2="471" y2="494"/>
  <line x1="679" y1="572" x2="635" y2="534"/>
  <line x1="600" y1="547" x2="601" y2="593"/>
  <line x1="288" y1="416" x2="224" y2="493"/>
  <line x1="241" y1="172" x2="199" y2="152"/>
  <line x1="437" y1="560" x2="439" y2="618"/>
  <line x1="776" y1="453" x2="824" y2="405"/>
  <line x1="295" y1="248" x2="341" y2="232"/>
  <line x1="514" y1="195" x2="529" y2="116"/>
  <line x1="650" y1="125" x2="655" y2="171"/>
  <line x1="78" y1="440" x2="20" y2="491"/>
  <line x1="387" y1="249" x2="350" y2="187"/>
</g>
<!-- Main chip body -->
<g transform="translate(400,300)">
  <rect x="-160" y="-160" width="320" height="320" rx="8" fill="url(#chipGrad)" stroke="#00E676" stroke-width="2" filter="url(#cgf)"/>
  <rect x="-160" y="-160" width="320" height="320" rx="8" fill="none" stroke="#00E676" stroke-opacity="0.3" stroke-width="1"/>
  <!-- Pinouts -->
  <rect x="-140" y="-160" width="14" height="6" fill="#00E676" fill-opacity="0.1" stroke="#00E676" stroke-opacity="0.3" stroke-width="0.8" rx="1"/>
  <line x1="-136" y1="-168" x2="-136" y2="-180" stroke="#00E676" stroke-opacity="0.15" stroke-width="0.8"/>
  <text x="-136" y="-180" fill="#00E676" fill-opacity="0.15" font-family="monospace" font-size="5">GPIO00</text>
  <rect x="-122" y="-160" width="14" height="6" fill="#00E676" fill-opacity="0.1" stroke="#00E676" stroke-opacity="0.3" stroke-width="0.8" rx="1"/>
  <line x1="-118" y1="-168" x2="-118" y2="-180" stroke="#00E676" stroke-opacity="0.15" stroke-width="0.8"/>
  <text x="-118" y="-180" fill="#00E676" fill-opacity="0.15" font-family="monospace" font-size="5">GPIO01</text>
  <rect x="-104" y="-160" width="14" height="6" fill="#00E676" fill-opacity="0.1" stroke="#00E676" stroke-opacity="0.3" stroke-width="0.8" rx="1"/>
  <line x1="-100" y1="-168" x2="-100" y2="-180" stroke="#00E676" stroke-opacity="0.15" stroke-width="0.8"/>
  <text x="-100" y="-180" fill="#00E676" fill-opacity="0.15" font-family="monospace" font-size="5">GPIO02</text>
  <rect x="-86" y="-160" width="14" height="6" fill="#00E676" fill-opacity="0.1" stroke="#00E676" stroke-opacity="0.3" stroke-width="0.8" rx="1"/>
  <line x1="-82" y1="-168" x2="-82" y2="-180" stroke="#00E676" stroke-opacity="0.15" stroke-width="0.8"/>
  <text x="-82" y="-180" fill="#00E676" fill-opacity="0.15" font-family="monospace" font-size="5">GPIO03</text>
  <rect x="-68" y="-160" width="14" height="6" fill="#00E676" fill-opacity="0.1" stroke="#00E676" stroke-opacity="0.3" stroke-width="0.8" rx="1"/>
  <line x1="-64" y1="-168" x2="-64" y2="-180" stroke="#00E676" stroke-opacity="0.15" stroke-width="0.8"/>
  <text x="-64" y="-180" fill="#00E676" fill-opacity="0.15" font-family="monospace" font-size="5">GPIO04</text>
  <rect x="-50" y="-160" width="14" height="6" fill="#00E676" fill-opacity="0.1" stroke="#00E676" stroke-opacity="0.3" stroke-width="0.8" rx="1"/>
  <line x1="-46" y1="-168" x2="-46" y2="-180" stroke="#00E676" stroke-opacity="0.15" stroke-width="0.8"/>
  <text x="-46" y="-180" fill="#00E676" fill-opacity="0.15" font-family="monospace" font-size="5">GPIO05</text>
  <rect x="-32" y="-160" width="14" height="6" fill="#00E676" fill-opacity="0.1" stroke="#00E676" stroke-opacity="0.3" stroke-width="0.8" rx="1"/>
  <line x1="-28" y1="-168" x2="-28" y2="-180" stroke="#00E676" stroke-opacity="0.15" stroke-width="0.8"/>
  <text x="-28" y="-180" fill="#00E676" fill-opacity="0.15" font-family="monospace" font-size="5">GPIO06</text>
  <rect x="-14" y="-160" width="14" height="6" fill="#00E676" fill-opacity="0.1" stroke="#00E676" stroke-opacity="0.3" stroke-width="0.8" rx="1"/>
  <line x1="-10" y1="-168" x2="-10" y2="-180" stroke="#00E676" stroke-opacity="0.15" stroke-width="0.8"/>
  <text x="-10" y="-180" fill="#00E676" fill-opacity="0.15" font-family="monospace" font-size="5">GPIO07</text>
  <rect x="4" y="-160" width="14" height="6" fill="#00E676" fill-opacity="0.1" stroke="#00E676" stroke-opacity="0.3" stroke-width="0.8" rx="1"/>
  <line x1="8" y1="-168" x2="8" y2="-180" stroke="#00E676" stroke-opacity="0.15" stroke-width="0.8"/>
  <text x="8" y="-180" fill="#00E676" fill-opacity="0.15" font-family="monospace" font-size="5">GPIO08</text>
  <rect x="22" y="-160" width="14" height="6" fill="#00E676" fill-opacity="0.1" stroke="#00E676" stroke-opacity="0.3" stroke-width="0.8" rx="1"/>
  <line x1="26" y1="-168" x2="26" y2="-180" stroke="#00E676" stroke-opacity="0.15" stroke-width="0.8"/>
  <text x="26" y="-180" fill="#00E676" fill-opacity="0.15" font-family="monospace" font-size="5">GPIO09</text>
  <rect x="40" y="-160" width="14" height="6" fill="#00E676" fill-opacity="0.1" stroke="#00E676" stroke-opacity="0.3" stroke-width="0.8" rx="1"/>
  <line x1="44" y1="-168" x2="44" y2="-180" stroke="#00E676" stroke-opacity="0.15" stroke-width="0.8"/>
  <text x="44" y="-180" fill="#00E676" fill-opacity="0.15" font-family="monospace" font-size="5">GPIO10</text>
  <rect x="58" y="-160" width="14" height="6" fill="#00E676" fill-opacity="0.1" stroke="#00E676" stroke-opacity="0.3" stroke-width="0.8" rx="1"/>
  <line x1="62" y1="-168" x2="62" y2="-180" stroke="#00E676" stroke-opacity="0.15" stroke-width="0.8"/>
  <text x="62" y="-180" fill="#00E676" fill-opacity="0.15" font-family="monospace" font-size="5">GPIO11</text>
  <rect x="76" y="-160" width="14" height="6" fill="#00E676" fill-opacity="0.1" stroke="#00E676" stroke-opacity="0.3" stroke-width="0.8" rx="1"/>
  <line x1="80" y1="-168" x2="80" y2="-180" stroke="#00E676" stroke-opacity="0.15" stroke-width="0.8"/>
  <text x="80" y="-180" fill="#00E676" fill-opacity="0.15" font-family="monospace" font-size="5">VCC</text>
  <rect x="94" y="-160" width="14" height="6" fill="#00E676" fill-opacity="0.1" stroke="#00E676" stroke-opacity="0.3" stroke-width="0.8" rx="1"/>
  <line x1="98" y1="-168" x2="98" y2="-180" stroke="#00E676" stroke-opacity="0.15" stroke-width="0.8"/>
  <text x="98" y="-180" fill="#00E676" fill-opacity="0.15" font-family="monospace" font-size="5">GND</text>
  <rect x="112" y="-160" width="14" height="6" fill="#00E676" fill-opacity="0.1" stroke="#00E676" stroke-opacity="0.3" stroke-width="0.8" rx="1"/>
  <line x1="116" y1="-168" x2="116" y2="-180" stroke="#00E676" stroke-opacity="0.15" stroke-width="0.8"/>
  <text x="116" y="-180" fill="#00E676" fill-opacity="0.15" font-family="monospace" font-size="5">SCL</text>
  <rect x="130" y="-160" width="14" height="6" fill="#00E676" fill-opacity="0.1" stroke="#00E676" stroke-opacity="0.3" stroke-width="0.8" rx="1"/>
  <line x1="134" y1="-168" x2="134" y2="-180" stroke="#00E676" stroke-opacity="0.15" stroke-width="0.8"/>
  <text x="134" y="-180" fill="#00E676" fill-opacity="0.15" font-family="monospace" font-size="5">SDA</text>
  <rect x="160" y="-140" width="14" height="6" fill="#00E676" fill-opacity="0.1" stroke="#00E676" stroke-opacity="0.3" stroke-width="0.8" rx="1"/>
  <line x1="168" y1="-136" x2="180" y2="-136" stroke="#00E676" stroke-opacity="0.15" stroke-width="0.8"/>
  <text x="180" y="-136" fill="#00E676" fill-opacity="0.15" font-family="monospace" font-size="5">GPIO00</text>
  <rect x="160" y="-122" width="14" height="6" fill="#00E676" fill-opacity="0.1" stroke="#00E676" stroke-opacity="0.3" stroke-width="0.8" rx="1"/>
  <line x1="168" y1="-118" x2="180" y2="-118" stroke="#00E676" stroke-opacity="0.15" stroke-width="0.8"/>
  <text x="180" y="-118" fill="#00E676" fill-opacity="0.15" font-family="monospace" font-size="5">GPIO01</text>
  <rect x="160" y="-104" width="14" height="6" fill="#00E676" fill-opacity="0.1" stroke="#00E676" stroke-opacity="0.3" stroke-width="0.8" rx="1"/>
  <line x1="168" y1="-100" x2="180" y2="-100" stroke="#00E676" stroke-opacity="0.15" stroke-width="0.8"/>
  <text x="180" y="-100" fill="#00E676" fill-opacity="0.15" font-family="monospace" font-size="5">GPIO02</text>
  <rect x="160" y="-86" width="14" height="6" fill="#00E676" fill-opacity="0.1" stroke="#00E676" stroke-opacity="0.3" stroke-width="0.8" rx="1"/>
  <line x1="168" y1="-82" x2="180" y2="-82" stroke="#00E676" stroke-opacity="0.15" stroke-width="0.8"/>
  <text x="180" y="-82" fill="#00E676" fill-opacity="0.15" font-family="monospace" font-size="5">GPIO03</text>
  <rect x="160" y="-68" width="14" height="6" fill="#00E676" fill-opacity="0.1" stroke="#00E676" stroke-opacity="0.3" stroke-width="0.8" rx="1"/>
  <line x1="168" y1="-64" x2="180" y2="-64" stroke="#00E676" stroke-opacity="0.15" stroke-width="0.8"/>
  <text x="180" y="-64" fill="#00E676" fill-opacity="0.15" font-family="monospace" font-size="5">GPIO04</text>
  <rect x="160" y="-50" width="14" height="6" fill="#00E676" fill-opacity="0.1" stroke="#00E676" stroke-opacity="0.3" stroke-width="0.8" rx="1"/>
  <line x1="168" y1="-46" x2="180" y2="-46" stroke="#00E676" stroke-opacity="0.15" stroke-width="0.8"/>
  <text x="180" y="-46" fill="#00E676" fill-opacity="0.15" font-family="monospace" font-size="5">GPIO05</text>
  <rect x="160" y="-32" width="14" height="6" fill="#00E676" fill-opacity="0.1" stroke="#00E676" stroke-opacity="0.3" stroke-width="0.8" rx="1"/>
  <line x1="168" y1="-28" x2="180" y2="-28" stroke="#00E676" stroke-opacity="0.15" stroke-width="0.8"/>
  <text x="180" y="-28" fill="#00E676" fill-opacity="0.15" font-family="monospace" font-size="5">GPIO06</text>
  <rect x="160" y="-14" width="14" height="6" fill="#00E676" fill-opacity="0.1" stroke="#00E676" stroke-opacity="0.3" stroke-width="0.8" rx="1"/>
  <line x1="168" y1="-10" x2="180" y2="-10" stroke="#00E676" stroke-opacity="0.15" stroke-width="0.8"/>
  <text x="180" y="-10" fill="#00E676" fill-opacity="0.15" font-family="monospace" font-size="5">GPIO07</text>
  <rect x="160" y="4" width="14" height="6" fill="#00E676" fill-opacity="0.1" stroke="#00E676" stroke-opacity="0.3" stroke-width="0.8" rx="1"/>
  <line x1="168" y1="8" x2="180" y2="8" stroke="#00E676" stroke-opacity="0.15" stroke-width="0.8"/>
  <text x="180" y="8" fill="#00E676" fill-opacity="0.15" font-family="monospace" font-size="5">GPIO08</text>
  <rect x="160" y="22" width="14" height="6" fill="#00E676" fill-opacity="0.1" stroke="#00E676" stroke-opacity="0.3" stroke-width="0.8" rx="1"/>
  <line x1="168" y1="26" x2="180" y2="26" stroke="#00E676" stroke-opacity="0.15" stroke-width="0.8"/>
  <text x="180" y="26" fill="#00E676" fill-opacity="0.15" font-family="monospace" font-size="5">GPIO09</text>
  <rect x="160" y="40" width="14" height="6" fill="#00E676" fill-opacity="0.1" stroke="#00E676" stroke-opacity="0.3" stroke-width="0.8" rx="1"/>
  <line x1="168" y1="44" x2="180" y2="44" stroke="#00E676" stroke-opacity="0.15" stroke-width="0.8"/>
  <text x="180" y="44" fill="#00E676" fill-opacity="0.15" font-family="monospace" font-size="5">GPIO10</text>
  <rect x="160" y="58" width="14" height="6" fill="#00E676" fill-opacity="0.1" stroke="#00E676" stroke-opacity="0.3" stroke-width="0.8" rx="1"/>
  <line x1="168" y1="62" x2="180" y2="62" stroke="#00E676" stroke-opacity="0.15" stroke-width="0.8"/>
  <text x="180" y="62" fill="#00E676" fill-opacity="0.15" font-family="monospace" font-size="5">GPIO11</text>
  <rect x="160" y="76" width="14" height="6" fill="#00E676" fill-opacity="0.1" stroke="#00E676" stroke-opacity="0.3" stroke-width="0.8" rx="1"/>
  <line x1="168" y1="80" x2="180" y2="80" stroke="#00E676" stroke-opacity="0.15" stroke-width="0.8"/>
  <text x="180" y="80" fill="#00E676" fill-opacity="0.15" font-family="monospace" font-size="5">VCC</text>
  <rect x="160" y="94" width="14" height="6" fill="#00E676" fill-opacity="0.1" stroke="#00E676" stroke-opacity="0.3" stroke-width="0.8" rx="1"/>
  <line x1="168" y1="98" x2="180" y2="98" stroke="#00E676" stroke-opacity="0.15" stroke-width="0.8"/>
  <text x="180" y="98" fill="#00E676" fill-opacity="0.15" font-family="monospace" font-size="5">GND</text>
  <rect x="160" y="112" width="14" height="6" fill="#00E676" fill-opacity="0.1" stroke="#00E676" stroke-opacity="0.3" stroke-width="0.8" rx="1"/>
  <line x1="168" y1="116" x2="180" y2="116" stroke="#00E676" stroke-opacity="0.15" stroke-width="0.8"/>
  <text x="180" y="116" fill="#00E676" fill-opacity="0.15" font-family="monospace" font-size="5">SCL</text>
  <rect x="160" y="130" width="14" height="6" fill="#00E676" fill-opacity="0.1" stroke="#00E676" stroke-opacity="0.3" stroke-width="0.8" rx="1"/>
  <line x1="168" y1="134" x2="180" y2="134" stroke="#00E676" stroke-opacity="0.15" stroke-width="0.8"/>
  <text x="180" y="134" fill="#00E676" fill-opacity="0.15" font-family="monospace" font-size="5">SDA</text>
  <rect x="-140" y="160" width="14" height="6" fill="#00E676" fill-opacity="0.1" stroke="#00E676" stroke-opacity="0.3" stroke-width="0.8" rx="1"/>
  <line x1="-136" y1="168" x2="-136" y2="180" stroke="#00E676" stroke-opacity="0.15" stroke-width="0.8"/>
  <text x="-136" y="180" fill="#00E676" fill-opacity="0.15" font-family="monospace" font-size="5">GPIO00</text>
  <rect x="-122" y="160" width="14" height="6" fill="#00E676" fill-opacity="0.1" stroke="#00E676" stroke-opacity="0.3" stroke-width="0.8" rx="1"/>
  <line x1="-118" y1="168" x2="-118" y2="180" stroke="#00E676" stroke-opacity="0.15" stroke-width="0.8"/>
  <text x="-118" y="180" fill="#00E676" fill-opacity="0.15" font-family="monospace" font-size="5">GPIO01</text>
  <rect x="-104" y="160" width="14" height="6" fill="#00E676" fill-opacity="0.1" stroke="#00E676" stroke-opacity="0.3" stroke-width="0.8" rx="1"/>
  <line x1="-100" y1="168" x2="-100" y2="180" stroke="#00E676" stroke-opacity="0.15" stroke-width="0.8"/>
  <text x="-100" y="180" fill="#00E676" fill-opacity="0.15" font-family="monospace" font-size="5">GPIO02</text>
  <rect x="-86" y="160" width="14" height="6" fill="#00E676" fill-opacity="0.1" stroke="#00E676" stroke-opacity="0.3" stroke-width="0.8" rx="1"/>
  <line x1="-82" y1="168" x2="-82" y2="180" stroke="#00E676" stroke-opacity="0.15" stroke-width="0.8"/>
  <text x="-82" y="180" fill="#00E676" fill-opacity="0.15" font-family="monospace" font-size="5">GPIO03</text>
  <rect x="-68" y="160" width="14" height="6" fill="#00E676" fill-opacity="0.1" stroke="#00E676" stroke-opacity="0.3" stroke-width="0.8" rx="1"/>
  <line x1="-64" y1="168" x2="-64" y2="180" stroke="#00E676" stroke-opacity="0.15" stroke-width="0.8"/>
  <text x="-64" y="180" fill="#00E676" fill-opacity="0.15" font-family="monospace" font-size="5">GPIO04</text>
  <rect x="-50" y="160" width="14" height="6" fill="#00E676" fill-opacity="0.1" stroke="#00E676" stroke-opacity="0.3" stroke-width="0.8" rx="1"/>
  <line x1="-46" y1="168" x2="-46" y2="180" stroke="#00E676" stroke-opacity="0.15" stroke-width="0.8"/>
  <text x="-46" y="180" fill="#00E676" fill-opacity="0.15" font-family="monospace" font-size="5">GPIO05</text>
  <rect x="-32" y="160" width="14" height="6" fill="#00E676" fill-opacity="0.1" stroke="#00E676" stroke-opacity="0.3" stroke-width="0.8" rx="1"/>
  <line x1="-28" y1="168" x2="-28" y2="180" stroke="#00E676" stroke-opacity="0.15" stroke-width="0.8"/>
  <text x="-28" y="180" fill="#00E676" fill-opacity="0.15" font-family="monospace" font-size="5">GPIO06</text>
  <rect x="-14" y="160" width="14" height="6" fill="#00E676" fill-opacity="0.1" stroke="#00E676" stroke-opacity="0.3" stroke-width="0.8" rx="1"/>
  <line x1="-10" y1="168" x2="-10" y2="180" stroke="#00E676" stroke-opacity="0.15" stroke-width="0.8"/>
  <text x="-10" y="180" fill="#00E676" fill-opacity="0.15" font-family="monospace" font-size="5">GPIO07</text>
  <rect x="4" y="160" width="14" height="6" fill="#00E676" fill-opacity="0.1" stroke="#00E676" stroke-opacity="0.3" stroke-width="0.8" rx="1"/>
  <line x1="8" y1="168" x2="8" y2="180" stroke="#00E676" stroke-opacity="0.15" stroke-width="0.8"/>
  <text x="8" y="180" fill="#00E676" fill-opacity="0.15" font-family="monospace" font-size="5">GPIO08</text>
  <rect x="22" y="160" width="14" height="6" fill="#00E676" fill-opacity="0.1" stroke="#00E676" stroke-opacity="0.3" stroke-width="0.8" rx="1"/>
  <line x1="26" y1="168" x2="26" y2="180" stroke="#00E676" stroke-opacity="0.15" stroke-width="0.8"/>
  <text x="26" y="180" fill="#00E676" fill-opacity="0.15" font-family="monospace" font-size="5">GPIO09</text>
  <rect x="40" y="160" width="14" height="6" fill="#00E676" fill-opacity="0.1" stroke="#00E676" stroke-opacity="0.3" stroke-width="0.8" rx="1"/>
  <line x1="44" y1="168" x2="44" y2="180" stroke="#00E676" stroke-opacity="0.15" stroke-width="0.8"/>
  <text x="44" y="180" fill="#00E676" fill-opacity="0.15" font-family="monospace" font-size="5">GPIO10</text>
  <rect x="58" y="160" width="14" height="6" fill="#00E676" fill-opacity="0.1" stroke="#00E676" stroke-opacity="0.3" stroke-width="0.8" rx="1"/>
  <line x1="62" y1="168" x2="62" y2="180" stroke="#00E676" stroke-opacity="0.15" stroke-width="0.8"/>
  <text x="62" y="180" fill="#00E676" fill-opacity="0.15" font-family="monospace" font-size="5">GPIO11</text>
  <rect x="76" y="160" width="14" height="6" fill="#00E676" fill-opacity="0.1" stroke="#00E676" stroke-opacity="0.3" stroke-width="0.8" rx="1"/>
  <line x1="80" y1="168" x2="80" y2="180" stroke="#00E676" stroke-opacity="0.15" stroke-width="0.8"/>
  <text x="80" y="180" fill="#00E676" fill-opacity="0.15" font-family="monospace" font-size="5">VCC</text>
  <rect x="94" y="160" width="14" height="6" fill="#00E676" fill-opacity="0.1" stroke="#00E676" stroke-opacity="0.3" stroke-width="0.8" rx="1"/>
  <line x1="98" y1="168" x2="98" y2="180" stroke="#00E676" stroke-opacity="0.15" stroke-width="0.8"/>
  <text x="98" y="180" fill="#00E676" fill-opacity="0.15" font-family="monospace" font-size="5">GND</text>
  <rect x="112" y="160" width="14" height="6" fill="#00E676" fill-opacity="0.1" stroke="#00E676" stroke-opacity="0.3" stroke-width="0.8" rx="1"/>
  <line x1="116" y1="168" x2="116" y2="180" stroke="#00E676" stroke-opacity="0.15" stroke-width="0.8"/>
  <text x="116" y="180" fill="#00E676" fill-opacity="0.15" font-family="monospace" font-size="5">SCL</text>
  <rect x="130" y="160" width="14" height="6" fill="#00E676" fill-opacity="0.1" stroke="#00E676" stroke-opacity="0.3" stroke-width="0.8" rx="1"/>
  <line x1="134" y1="168" x2="134" y2="180" stroke="#00E676" stroke-opacity="0.15" stroke-width="0.8"/>
  <text x="134" y="180" fill="#00E676" fill-opacity="0.15" font-family="monospace" font-size="5">SDA</text>
  <rect x="-160" y="-140" width="14" height="6" fill="#00E676" fill-opacity="0.1" stroke="#00E676" stroke-opacity="0.3" stroke-width="0.8" rx="1"/>
  <line x1="-168" y1="-136" x2="-180" y2="-136" stroke="#00E676" stroke-opacity="0.15" stroke-width="0.8"/>
  <text x="-180" y="-136" fill="#00E676" fill-opacity="0.15" font-family="monospace" font-size="5">GPIO00</text>
  <rect x="-160" y="-122" width="14" height="6" fill="#00E676" fill-opacity="0.1" stroke="#00E676" stroke-opacity="0.3" stroke-width="0.8" rx="1"/>
  <line x1="-168" y1="-118" x2="-180" y2="-118" stroke="#00E676" stroke-opacity="0.15" stroke-width="0.8"/>
  <text x="-180" y="-118" fill="#00E676" fill-opacity="0.15" font-family="monospace" font-size="5">GPIO01</text>
  <rect x="-160" y="-104" width="14" height="6" fill="#00E676" fill-opacity="0.1" stroke="#00E676" stroke-opacity="0.3" stroke-width="0.8" rx="1"/>
  <line x1="-168" y1="-100" x2="-180" y2="-100" stroke="#00E676" stroke-opacity="0.15" stroke-width="0.8"/>
  <text x="-180" y="-100" fill="#00E676" fill-opacity="0.15" font-family="monospace" font-size="5">GPIO02</text>
  <rect x="-160" y="-86" width="14" height="6" fill="#00E676" fill-opacity="0.1" stroke="#00E676" stroke-opacity="0.3" stroke-width="0.8" rx="1"/>
  <line x1="-168" y1="-82" x2="-180" y2="-82" stroke="#00E676" stroke-opacity="0.15" stroke-width="0.8"/>
  <text x="-180" y="-82" fill="#00E676" fill-opacity="0.15" font-family="monospace" font-size="5">GPIO03</text>
  <rect x="-160" y="-68" width="14" height="6" fill="#00E676" fill-opacity="0.1" stroke="#00E676" stroke-opacity="0.3" stroke-width="0.8" rx="1"/>
  <line x1="-168" y1="-64" x2="-180" y2="-64" stroke="#00E676" stroke-opacity="0.15" stroke-width="0.8"/>
  <text x="-180" y="-64" fill="#00E676" fill-opacity="0.15" font-family="monospace" font-size="5">GPIO04</text>
  <rect x="-160" y="-50" width="14" height="6" fill="#00E676" fill-opacity="0.1" stroke="#00E676" stroke-opacity="0.3" stroke-width="0.8" rx="1"/>
  <line x1="-168" y1="-46" x2="-180" y2="-46" stroke="#00E676" stroke-opacity="0.15" stroke-width="0.8"/>
  <text x="-180" y="-46" fill="#00E676" fill-opacity="0.15" font-family="monospace" font-size="5">GPIO05</text>
  <rect x="-160" y="-32" width="14" height="6" fill="#00E676" fill-opacity="0.1" stroke="#00E676" stroke-opacity="0.3" stroke-width="0.8" rx="1"/>
  <line x1="-168" y1="-28" x2="-180" y2="-28" stroke="#00E676" stroke-opacity="0.15" stroke-width="0.8"/>
  <text x="-180" y="-28" fill="#00E676" fill-opacity="0.15" font-family="monospace" font-size="5">GPIO06</text>
  <rect x="-160" y="-14" width="14" height="6" fill="#00E676" fill-opacity="0.1" stroke="#00E676" stroke-opacity="0.3" stroke-width="0.8" rx="1"/>
  <line x1="-168" y1="-10" x2="-180" y2="-10" stroke="#00E676" stroke-opacity="0.15" stroke-width="0.8"/>
  <text x="-180" y="-10" fill="#00E676" fill-opacity="0.15" font-family="monospace" font-size="5">GPIO07</text>
  <rect x="-160" y="4" width="14" height="6" fill="#00E676" fill-opacity="0.1" stroke="#00E676" stroke-opacity="0.3" stroke-width="0.8" rx="1"/>
  <line x1="-168" y1="8" x2="-180" y2="8" stroke="#00E676" stroke-opacity="0.15" stroke-width="0.8"/>
  <text x="-180" y="8" fill="#00E676" fill-opacity="0.15" font-family="monospace" font-size="5">GPIO08</text>
  <rect x="-160" y="22" width="14" height="6" fill="#00E676" fill-opacity="0.1" stroke="#00E676" stroke-opacity="0.3" stroke-width="0.8" rx="1"/>
  <line x1="-168" y1="26" x2="-180" y2="26" stroke="#00E676" stroke-opacity="0.15" stroke-width="0.8"/>
  <text x="-180" y="26" fill="#00E676" fill-opacity="0.15" font-family="monospace" font-size="5">GPIO09</text>
  <rect x="-160" y="40" width="14" height="6" fill="#00E676" fill-opacity="0.1" stroke="#00E676" stroke-opacity="0.3" stroke-width="0.8" rx="1"/>
  <line x1="-168" y1="44" x2="-180" y2="44" stroke="#00E676" stroke-opacity="0.15" stroke-width="0.8"/>
  <text x="-180" y="44" fill="#00E676" fill-opacity="0.15" font-family="monospace" font-size="5">GPIO10</text>
  <rect x="-160" y="58" width="14" height="6" fill="#00E676" fill-opacity="0.1" stroke="#00E676" stroke-opacity="0.3" stroke-width="0.8" rx="1"/>
  <line x1="-168" y1="62" x2="-180" y2="62" stroke="#00E676" stroke-opacity="0.15" stroke-width="0.8"/>
  <text x="-180" y="62" fill="#00E676" fill-opacity="0.15" font-family="monospace" font-size="5">GPIO11</text>
  <rect x="-160" y="76" width="14" height="6" fill="#00E676" fill-opacity="0.1" stroke="#00E676" stroke-opacity="0.3" stroke-width="0.8" rx="1"/>
  <line x1="-168" y1="80" x2="-180" y2="80" stroke="#00E676" stroke-opacity="0.15" stroke-width="0.8"/>
  <text x="-180" y="80" fill="#00E676" fill-opacity="0.15" font-family="monospace" font-size="5">VCC</text>
  <rect x="-160" y="94" width="14" height="6" fill="#00E676" fill-opacity="0.1" stroke="#00E676" stroke-opacity="0.3" stroke-width="0.8" rx="1"/>
  <line x1="-168" y1="98" x2="-180" y2="98" stroke="#00E676" stroke-opacity="0.15" stroke-width="0.8"/>
  <text x="-180" y="98" fill="#00E676" fill-opacity="0.15" font-family="monospace" font-size="5">GND</text>
  <rect x="-160" y="112" width="14" height="6" fill="#00E676" fill-opacity="0.1" stroke="#00E676" stroke-opacity="0.3" stroke-width="0.8" rx="1"/>
  <line x1="-168" y1="116" x2="-180" y2="116" stroke="#00E676" stroke-opacity="0.15" stroke-width="0.8"/>
  <text x="-180" y="116" fill="#00E676" fill-opacity="0.15" font-family="monospace" font-size="5">SCL</text>
  <rect x="-160" y="130" width="14" height="6" fill="#00E676" fill-opacity="0.1" stroke="#00E676" stroke-opacity="0.3" stroke-width="0.8" rx="1"/>
  <line x1="-168" y1="134" x2="-180" y2="134" stroke="#00E676" stroke-opacity="0.15" stroke-width="0.8"/>
  <text x="-180" y="134" fill="#00E676" fill-opacity="0.15" font-family="monospace" font-size="5">SDA</text>
  <!-- Die -->
  <rect x="-90" y="-90" width="180" height="180" rx="4" fill="#050d05" stroke="#00E676" stroke-opacity="0.2" stroke-width="1"/>
  <line x1="-80" y1="-80" x2="-80" y2="80" stroke="#00E676" stroke-opacity="0.05" stroke-width="0.5"/>
  <line x1="-60" y1="-80" x2="-60" y2="80" stroke="#00E676" stroke-opacity="0.05" stroke-width="0.5"/>
  <line x1="-40" y1="-80" x2="-40" y2="80" stroke="#00E676" stroke-opacity="0.05" stroke-width="0.5"/>
  <line x1="-20" y1="-80" x2="-20" y2="80" stroke="#00E676" stroke-opacity="0.05" stroke-width="0.5"/>
  <line x1="0" y1="-80" x2="0" y2="80" stroke="#00E676" stroke-opacity="0.05" stroke-width="0.5"/>
  <line x1="20" y1="-80" x2="20" y2="80" stroke="#00E676" stroke-opacity="0.05" stroke-width="0.5"/>
  <line x1="40" y1="-80" x2="40" y2="80" stroke="#00E676" stroke-opacity="0.05" stroke-width="0.5"/>
  <line x1="60" y1="-80" x2="60" y2="80" stroke="#00E676" stroke-opacity="0.05" stroke-width="0.5"/>
  <line x1="80" y1="-80" x2="80" y2="80" stroke="#00E676" stroke-opacity="0.05" stroke-width="0.5"/>
  <line x1="-80" y1="-80" x2="80" y2="-80" stroke="#00E676" stroke-opacity="0.05" stroke-width="0.5"/>
  <line x1="-80" y1="-60" x2="80" y2="-60" stroke="#00E676" stroke-opacity="0.05" stroke-width="0.5"/>
  <line x1="-80" y1="-40" x2="80" y2="-40" stroke="#00E676" stroke-opacity="0.05" stroke-width="0.5"/>
  <line x1="-80" y1="-20" x2="80" y2="-20" stroke="#00E676" stroke-opacity="0.05" stroke-width="0.5"/>
  <line x1="-80" y1="0" x2="80" y2="0" stroke="#00E676" stroke-opacity="0.05" stroke-width="0.5"/>
  <line x1="-80" y1="20" x2="80" y2="20" stroke="#00E676" stroke-opacity="0.05" stroke-width="0.5"/>
  <line x1="-80" y1="40" x2="80" y2="40" stroke="#00E676" stroke-opacity="0.05" stroke-width="0.5"/>
  <line x1="-80" y1="60" x2="80" y2="60" stroke="#00E676" stroke-opacity="0.05" stroke-width="0.5"/>
  <line x1="-80" y1="80" x2="80" y2="80" stroke="#00E676" stroke-opacity="0.05" stroke-width="0.5"/>
  <rect x="-70" y="-70" width="30" height="30" rx="2" fill="#00E676" fill-opacity="0.04" stroke="#00E676" stroke-opacity="0.15" stroke-width="0.6"/>
  <text x="-55" y="-62" text-anchor="middle" fill="#00E676" fill-opacity="0.25" font-family="monospace" font-size="5">RISC-V</text>
  <text x="-55" y="-55" text-anchor="middle" fill="#00E676" fill-opacity="0.25" font-family="monospace" font-size="5">Core</text>
  <rect x="-30" y="-70" width="30" height="30" rx="2" fill="#00E676" fill-opacity="0.04" stroke="#00E676" stroke-opacity="0.15" stroke-width="0.6"/>
  <text x="-15" y="-62" text-anchor="middle" fill="#00E676" fill-opacity="0.25" font-family="monospace" font-size="5">Cache</text>
  <text x="-15" y="-55" text-anchor="middle" fill="#00E676" fill-opacity="0.25" font-family="monospace" font-size="5">L1</text>
  <rect x="10" y="-70" width="30" height="30" rx="2" fill="#00E676" fill-opacity="0.04" stroke="#00E676" stroke-opacity="0.15" stroke-width="0.6"/>
  <text x="25" y="-62" text-anchor="middle" fill="#00E676" fill-opacity="0.25" font-family="monospace" font-size="5">Cache</text>
  <text x="25" y="-55" text-anchor="middle" fill="#00E676" fill-opacity="0.25" font-family="monospace" font-size="5">L2</text>
  <rect x="50" y="-70" width="30" height="30" rx="2" fill="#00E676" fill-opacity="0.04" stroke="#00E676" stroke-opacity="0.15" stroke-width="0.6"/>
  <text x="65" y="-55" text-anchor="middle" fill="#00E676" fill-opacity="0.25" font-family="monospace" font-size="5">MMU</text>
  <rect x="-70" y="-30" width="30" height="30" rx="2" fill="#00E676" fill-opacity="0.04" stroke="#00E676" stroke-opacity="0.15" stroke-width="0.6"/>
  <text x="-55" y="-15" text-anchor="middle" fill="#00E676" fill-opacity="0.25" font-family="monospace" font-size="5">FPU</text>
  <rect x="-30" y="-30" width="30" height="30" rx="2" fill="#00E676" fill-opacity="0.04" stroke="#00E676" stroke-opacity="0.15" stroke-width="0.6"/>
  <text x="-15" y="-15" text-anchor="middle" fill="#00E676" fill-opacity="0.25" font-family="monospace" font-size="5">SIMD</text>
  <rect x="10" y="-30" width="30" height="30" rx="2" fill="#00E676" fill-opacity="0.04" stroke="#00E676" stroke-opacity="0.15" stroke-width="0.6"/>
  <text x="25" y="-15" text-anchor="middle" fill="#00E676" fill-opacity="0.25" font-family="monospace" font-size="5">DSP</text>
  <rect x="50" y="-30" width="30" height="30" rx="2" fill="#00E676" fill-opacity="0.04" stroke="#00E676" stroke-opacity="0.15" stroke-width="0.6"/>
  <text x="65" y="-15" text-anchor="middle" fill="#00E676" fill-opacity="0.25" font-family="monospace" font-size="5">DMA</text>
  <rect x="-70" y="10" width="30" height="30" rx="2" fill="#00E676" fill-opacity="0.04" stroke="#00E676" stroke-opacity="0.15" stroke-width="0.6"/>
  <text x="-55" y="25" text-anchor="middle" fill="#00E676" fill-opacity="0.25" font-family="monospace" font-size="5">UART</text>
  <rect x="-30" y="10" width="30" height="30" rx="2" fill="#00E676" fill-opacity="0.04" stroke="#00E676" stroke-opacity="0.15" stroke-width="0.6"/>
  <text x="-15" y="25" text-anchor="middle" fill="#00E676" fill-opacity="0.25" font-family="monospace" font-size="5">I2C</text>
  <rect x="10" y="10" width="30" height="30" rx="2" fill="#00E676" fill-opacity="0.04" stroke="#00E676" stroke-opacity="0.15" stroke-width="0.6"/>
  <text x="25" y="25" text-anchor="middle" fill="#00E676" fill-opacity="0.25" font-family="monospace" font-size="5">SPI</text>
  <rect x="50" y="10" width="30" height="30" rx="2" fill="#00E676" fill-opacity="0.04" stroke="#00E676" stroke-opacity="0.15" stroke-width="0.6"/>
  <text x="65" y="25" text-anchor="middle" fill="#00E676" fill-opacity="0.25" font-family="monospace" font-size="5">TIMER</text>
  <rect x="-70" y="50" width="30" height="30" rx="2" fill="#00E676" fill-opacity="0.04" stroke="#00E676" stroke-opacity="0.15" stroke-width="0.6"/>
  <text x="-55" y="58" text-anchor="middle" fill="#00E676" fill-opacity="0.25" font-family="monospace" font-size="5">INT</text>
  <text x="-55" y="65" text-anchor="middle" fill="#00E676" fill-opacity="0.25" font-family="monospace" font-size="5">CTRL</text>
  <rect x="-30" y="50" width="30" height="30" rx="2" fill="#00E676" fill-opacity="0.04" stroke="#00E676" stroke-opacity="0.15" stroke-width="0.6"/>
  <text x="-15" y="65" text-anchor="middle" fill="#00E676" fill-opacity="0.25" font-family="monospace" font-size="5">WDT</text>
  <rect x="10" y="50" width="30" height="30" rx="2" fill="#00E676" fill-opacity="0.04" stroke="#00E676" stroke-opacity="0.15" stroke-width="0.6"/>
  <text x="25" y="65" text-anchor="middle" fill="#00E676" fill-opacity="0.25" font-family="monospace" font-size="5">RTC</text>
  <rect x="50" y="50" width="30" height="30" rx="2" fill="#00E676" fill-opacity="0.04" stroke="#00E676" stroke-opacity="0.15" stroke-width="0.6"/>
  <text x="65" y="65" text-anchor="middle" fill="#00E676" fill-opacity="0.25" font-family="monospace" font-size="5">TRNG</text>
</g>
<text x="400" y="565" text-anchor="middle" fill="#00E676" fill-opacity="0.3" font-family="monospace" font-size="11">MICROCHIP // 7nm // RISC-V // 64-CORE</text>
<text x="400" y="30" text-anchor="middle" fill="#00E676" fill-opacity="0.4" font-family="monospace" font-size="14" font-weight="bold">MICROCHIP // DIE ARCHITECTURE</text>
</svg>