<svg xmlns="http://www.w3.org/2000/svg" viewBox="0 0 800 600">
<defs>
  <radialGradient id="nbg" cx="50%" cy="50%" r="75%">
    <stop offset="0%" stop-color="#0d0d0d"/><stop offset="100%" stop-color="#030303"/>
  </radialGradient>
  <radialGradient id="nglow" cx="50%" cy="50%" r="60%">
    <stop offset="0%" stop-color="#00E676" stop-opacity="0.06"/>
    <stop offset="100%" stop-color="#00E676" stop-opacity="0"/>
  </radialGradient>
  <filter id="ngf"><feGaussianBlur stdDeviation="2"/></filter>
  <linearGradient id="lineGrad" x1="0" y1="0" x2="1" y2="0">
    <stop offset="0%" stop-color="#00E676" stop-opacity="0.08"/>
    <stop offset="50%" stop-color="#00E676" stop-opacity="0.35"/>
    <stop offset="100%" stop-color="#00E676" stop-opacity="0.08"/>
  </linearGradient>
  <radialGradient id="nodeGlow" cx="50%" cy="50%" r="50%">
    <stop offset="0%" stop-color="#00E676" stop-opacity="0.6"/>
    <stop offset="100%" stop-color="#00E676" stop-opacity="0"/>
  </radialGradient>
</defs>
<rect width="800" height="600" fill="url(#nbg)"/>
<rect width="800" height="600" fill="url(#nglow)"/>
<g stroke="#00E676" fill="none">
  <line x1="371" y1="194" x2="444" y2="89" stroke-opacity="0.050" stroke-width="1.2"/>
  <circle cx="408" cy="142" r="2" fill="#00E676" fill-opacity="0.6"/>
  <line x1="371" y1="194" x2="414" y2="99" stroke-opacity="0.091" stroke-width="1.2"/>
  <line x1="371" y1="194" x2="421" y2="139" stroke-opacity="0.151" stroke-width="1.2"/>
  <circle cx="396" cy="166" r="2" fill="#00E676" fill-opacity="0.6"/>
  <line x1="371" y1="194" x2="294" y2="224" stroke-opacity="0.135" stroke-width="1.2"/>
  <line x1="371" y1="194" x2="334" y2="114" stroke-opacity="0.124" stroke-width="1.2"/>
  <line x1="444" y1="89" x2="414" y2="99" stroke-opacity="0.237" stroke-width="1.2"/>
  <line x1="444" y1="89" x2="421" y2="139" stroke-opacity="0.190" stroke-width="1.2"/>
  <line x1="444" y1="89" x2="334" y2="114" stroke-opacity="0.074" stroke-width="1.2"/>
  <line x1="114" y1="136" x2="78" y2="128" stroke-opacity="0.226" stroke-width="1.2"/>
  <line x1="114" y1="136" x2="100" y2="166" stroke-opacity="0.234" stroke-width="1.2"/>
  <line x1="114" y1="136" x2="87" y2="176" stroke-opacity="0.203" stroke-width="1.2"/>
  <line x1="114" y1="136" x2="187" y2="160" stroke-opacity="0.146" stroke-width="1.2"/>
  <line x1="114" y1="136" x2="145" y2="232" stroke-opacity="0.098" stroke-width="1.2"/>
  <line x1="414" y1="99" x2="421" y2="139" stroke-opacity="0.219" stroke-width="1.2"/>
  <line x1="414" y1="99" x2="334" y2="114" stroke-opacity="0.137" stroke-width="1.2"/>
  <line x1="559" y1="259" x2="624" y2="355" stroke-opacity="0.068" stroke-width="1.2"/>
  <line x1="559" y1="259" x2="613" y2="225" stroke-opacity="0.172" stroke-width="1.2"/>
  <circle cx="586" cy="242" r="2" fill="#00E676" fill-opacity="0.6"/>
  <line x1="559" y1="259" x2="673" y2="250" stroke-opacity="0.071" stroke-width="1.2"/>
  <line x1="78" y1="128" x2="100" y2="166" stroke-opacity="0.212" stroke-width="1.2"/>
  <line x1="78" y1="128" x2="87" y2="176" stroke-opacity="0.202" stroke-width="1.2"/>
  <line x1="78" y1="128" x2="187" y2="160" stroke-opacity="0.073" stroke-width="1.2"/>
  <line x1="78" y1="128" x2="145" y2="232" stroke-opacity="0.053" stroke-width="1.2"/>
  <line x1="484" y1="468" x2="548" y2="477" stroke-opacity="0.171" stroke-width="1.2"/>
  <line x1="484" y1="468" x2="577" y2="546" stroke-opacity="0.057" stroke-width="1.2"/>
  <line x1="484" y1="468" x2="391" y2="499" stroke-opacity="0.104" stroke-width="1.2"/>
  <circle cx="438" cy="484" r="2" fill="#00E676" fill-opacity="0.6"/>
  <line x1="111" y1="286" x2="100" y2="166" stroke-opacity="0.059" stroke-width="1.2"/>
  <line x1="111" y1="286" x2="90" y2="266" stroke-opacity="0.242" stroke-width="1.2"/>
  <circle cx="100" cy="276" r="2" fill="#00E676" fill-opacity="0.6"/>
  <line x1="111" y1="286" x2="87" y2="176" stroke-opacity="0.075" stroke-width="1.2"/>
  <circle cx="99" cy="231" r="2" fill="#00E676" fill-opacity="0.6"/>
  <line x1="111" y1="286" x2="145" y2="232" stroke-opacity="0.172" stroke-width="1.2"/>
  <circle cx="128" cy="259" r="2" fill="#00E676" fill-opacity="0.6"/>
  <line x1="111" y1="286" x2="123" y2="347" stroke-opacity="0.176" stroke-width="1.2"/>
  <line x1="132" y1="474" x2="123" y2="347" stroke-opacity="0.050" stroke-width="1.2"/>
  <circle cx="128" cy="410" r="2" fill="#00E676" fill-opacity="0.6"/>
  <line x1="132" y1="474" x2="160" y2="468" stroke-opacity="0.243" stroke-width="1.2"/>
  <line x1="132" y1="474" x2="208" y2="390" stroke-opacity="0.073" stroke-width="1.2"/>
  <line x1="100" y1="166" x2="90" y2="266" stroke-opacity="0.099" stroke-width="1.2"/>
  <line x1="100" y1="166" x2="87" y2="176" stroke-opacity="0.267" stroke-width="1.2"/>
  <circle cx="94" cy="171" r="2" fill="#00E676" fill-opacity="0.6"/>
  <line x1="100" y1="166" x2="187" y2="160" stroke-opacity="0.126" stroke-width="1.2"/>
  <line x1="100" y1="166" x2="145" y2="232" stroke-opacity="0.140" stroke-width="1.2"/>
  <line x1="268" y1="103" x2="187" y2="160" stroke-opacity="0.102" stroke-width="1.2"/>
  <line x1="268" y1="103" x2="294" y2="224" stroke-opacity="0.052" stroke-width="1.2"/>
  <line x1="268" y1="103" x2="334" y2="114" stroke-opacity="0.166" stroke-width="1.2"/>
  <line x1="630" y1="446" x2="624" y2="355" stroke-opacity="0.118" stroke-width="1.2"/>
  <line x1="630" y1="446" x2="548" y2="477" stroke-opacity="0.125" stroke-width="1.2"/>
  <line x1="630" y1="446" x2="639" y2="504" stroke-opacity="0.183" stroke-width="1.2"/>
  <line x1="630" y1="446" x2="577" y2="546" stroke-opacity="0.074" stroke-width="1.2"/>
  <line x1="90" y1="266" x2="87" y2="176" stroke-opacity="0.120" stroke-width="1.2"/>
  <line x1="90" y1="266" x2="145" y2="232" stroke-opacity="0.171" stroke-width="1.2"/>
  <circle cx="118" cy="249" r="2" fill="#00E676" fill-opacity="0.6"/>
  <line x1="90" y1="266" x2="123" y2="347" stroke-opacity="0.125" stroke-width="1.2"/>
  <circle cx="106" cy="306" r="2" fill="#00E676" fill-opacity="0.6"/>
  <line x1="87" y1="176" x2="187" y2="160" stroke-opacity="0.097" stroke-width="1.2"/>
  <line x1="87" y1="176" x2="145" y2="232" stroke-opacity="0.139" stroke-width="1.2"/>
  <line x1="336" y1="469" x2="361" y2="516" stroke-opacity="0.194" stroke-width="1.2"/>
  <line x1="336" y1="469" x2="391" y2="499" stroke-opacity="0.175" stroke-width="1.2"/>
  <line x1="187" y1="160" x2="145" y2="232" stroke-opacity="0.133" stroke-width="1.2"/>
  <line x1="187" y1="160" x2="294" y2="224" stroke-opacity="0.051" stroke-width="1.2"/>
  <circle cx="240" cy="192" r="2" fill="#00E676" fill-opacity="0.6"/>
  <line x1="624" y1="355" x2="673" y2="250" stroke-opacity="0.068" stroke-width="1.2"/>
  <line x1="613" y1="225" x2="600" y2="104" stroke-opacity="0.057" stroke-width="1.2"/>
  <line x1="613" y1="225" x2="617" y2="101" stroke-opacity="0.052" stroke-width="1.2"/>
  <line x1="613" y1="225" x2="673" y2="250" stroke-opacity="0.170" stroke-width="1.2"/>
  <line x1="145" y1="232" x2="123" y2="347" stroke-opacity="0.066" stroke-width="1.2"/>
  <line x1="421" y1="139" x2="334" y2="114" stroke-opacity="0.119" stroke-width="1.2"/>
  <line x1="600" y1="104" x2="617" y2="101" stroke-opacity="0.265" stroke-width="1.2"/>
  <line x1="673" y1="250" x2="755" y2="289" stroke-opacity="0.118" stroke-width="1.2"/>
  <line x1="548" y1="477" x2="639" y2="504" stroke-opacity="0.110" stroke-width="1.2"/>
  <circle cx="594" cy="490" r="2" fill="#00E676" fill-opacity="0.6"/>
  <line x1="548" y1="477" x2="577" y2="546" stroke-opacity="0.150" stroke-width="1.2"/>
  <line x1="361" y1="516" x2="391" y2="499" stroke-opacity="0.231" stroke-width="1.2"/>
  <line x1="639" y1="504" x2="577" y2="546" stroke-opacity="0.150" stroke-width="1.2"/>
  <line x1="294" y1="224" x2="334" y2="114" stroke-opacity="0.066" stroke-width="1.2"/>
  <line x1="123" y1="347" x2="160" y2="468" stroke-opacity="0.050" stroke-width="1.2"/>
  <line x1="123" y1="347" x2="208" y2="390" stroke-opacity="0.109" stroke-width="1.2"/>
  <line x1="160" y1="468" x2="208" y2="390" stroke-opacity="0.117" stroke-width="1.2"/>
  <circle cx="184" cy="429" r="2" fill="#00E676" fill-opacity="0.6"/>
</g>
<g>
  <circle cx="371" cy="194" r="5" fill="#00E676" fill-opacity="0.08" stroke="#00E676" stroke-width="1.5"/>
  <circle cx="371" cy="194" r="2" fill="#00E676" fill-opacity="0.7"/>
  <text x="379" y="197" fill="#00E676" fill-opacity="0.35" font-family="monospace" font-size="8">GW</text>
  <circle cx="444" cy="89" r="7" fill="#00E676" fill-opacity="0.08" stroke="#00E676" stroke-width="1.5"/>
  <circle cx="444" cy="89" r="2" fill="#00E676" fill-opacity="0.7"/>
  <text x="452" y="92" fill="#00E676" fill-opacity="0.35" font-family="monospace" font-size="8">FW</text>
  <circle cx="114" cy="136" r="9" fill="#00E676" fill-opacity="0.08" stroke="#00E676" stroke-width="1.5"/>
  <circle cx="114" cy="136" r="2" fill="#00E676" fill-opacity="0.7"/>
  <text x="122" y="139" fill="#00E676" fill-opacity="0.35" font-family="monospace" font-size="8">DNS</text>
  <circle cx="414" cy="99" r="5" fill="#00E676" fill-opacity="0.08" stroke="#00E676" stroke-width="1.5"/>
  <circle cx="414" cy="99" r="2" fill="#00E676" fill-opacity="0.7"/>
  <text x="422" y="102" fill="#00E676" fill-opacity="0.35" font-family="monospace" font-size="8">DHCP</text>
  <circle cx="559" cy="259" r="7" fill="#00E676" fill-opacity="0.08" stroke="#00E676" stroke-width="1.5"/>
  <circle cx="559" cy="259" r="2" fill="#00E676" fill-opacity="0.7"/>
  <text x="567" y="262" fill="#00E676" fill-opacity="0.35" font-family="monospace" font-size="8">NAT</text>
  <circle cx="78" cy="128" r="9" fill="#00E676" fill-opacity="0.08" stroke="#00E676" stroke-width="1.5"/>
  <circle cx="78" cy="128" r="2" fill="#00E676" fill-opacity="0.7"/>
  <text x="86" y="131" fill="#00E676" fill-opacity="0.35" font-family="monospace" font-size="8">VPN</text>
  <circle cx="484" cy="468" r="5" fill="#00E676" fill-opacity="0.08" stroke="#00E676" stroke-width="1.5"/>
  <circle cx="484" cy="468" r="2" fill="#00E676" fill-opacity="0.7"/>
  <text x="492" y="471" fill="#00E676" fill-opacity="0.35" font-family="monospace" font-size="8">IDS</text>
  <circle cx="111" cy="286" r="7" fill="#00E676" fill-opacity="0.08" stroke="#00E676" stroke-width="1.5"/>
  <circle cx="111" cy="286" r="2" fill="#00E676" fill-opacity="0.7"/>
  <text x="119" y="289" fill="#00E676" fill-opacity="0.35" font-family="monospace" font-size="8">IPS</text>
  <circle cx="132" cy="474" r="9" fill="#00E676" fill-opacity="0.08" stroke="#00E676" stroke-width="1.5"/>
  <circle cx="132" cy="474" r="2" fill="#00E676" fill-opacity="0.7"/>
  <text x="140" y="477" fill="#00E676" fill-opacity="0.35" font-family="monospace" font-size="8">HONEY</text>
  <circle cx="100" cy="166" r="5" fill="#00E676" fill-opacity="0.08" stroke="#00E676" stroke-width="1.5"/>
  <circle cx="100" cy="166" r="2" fill="#00E676" fill-opacity="0.7"/>
  <text x="108" y="169" fill="#00E676" fill-opacity="0.35" font-family="monospace" font-size="8">SYSLOG</text>
  <circle cx="268" cy="103" r="7" fill="#00E676" fill-opacity="0.08" stroke="#00E676" stroke-width="1.5"/>
  <circle cx="268" cy="103" r="2" fill="#00E676" fill-opacity="0.7"/>
  <text x="276" y="106" fill="#00E676" fill-opacity="0.35" font-family="monospace" font-size="8">DC1</text>
  <circle cx="630" cy="446" r="9" fill="#00E676" fill-opacity="0.08" stroke="#00E676" stroke-width="1.5"/>
  <circle cx="630" cy="446" r="2" fill="#00E676" fill-opacity="0.7"/>
  <text x="638" y="449" fill="#00E676" fill-opacity="0.35" font-family="monospace" font-size="8">DC2</text>
  <circle cx="90" cy="266" r="5" fill="#00E676" fill-opacity="0.08" stroke="#00E676" stroke-width="1.5"/>
  <circle cx="90" cy="266" r="2" fill="#00E676" fill-opacity="0.7"/>
  <text x="98" y="269" fill="#00E676" fill-opacity="0.35" font-family="monospace" font-size="8">WEB</text>
  <circle cx="87" cy="176" r="7" fill="#00E676" fill-opacity="0.08" stroke="#00E676" stroke-width="1.5"/>
  <circle cx="87" cy="176" r="2" fill="#00E676" fill-opacity="0.7"/>
  <text x="95" y="179" fill="#00E676" fill-opacity="0.35" font-family="monospace" font-size="8">APP</text>
  <circle cx="336" cy="469" r="9" fill="#00E676" fill-opacity="0.08" stroke="#00E676" stroke-width="1.5"/>
  <circle cx="336" cy="469" r="2" fill="#00E676" fill-opacity="0.7"/>
  <text x="344" y="472" fill="#00E676" fill-opacity="0.35" font-family="monospace" font-size="8">DB</text>
  <circle cx="187" cy="160" r="5" fill="#00E676" fill-opacity="0.08" stroke="#00E676" stroke-width="1.5"/>
  <circle cx="187" cy="160" r="2" fill="#00E676" fill-opacity="0.7"/>
  <text x="195" y="163" fill="#00E676" fill-opacity="0.35" font-family="monospace" font-size="8">CACHE</text>
  <circle cx="624" cy="355" r="7" fill="#00E676" fill-opacity="0.08" stroke="#00E676" stroke-width="1.5"/>
  <circle cx="624" cy="355" r="2" fill="#00E676" fill-opacity="0.7"/>
  <text x="632" y="358" fill="#00E676" fill-opacity="0.35" font-family="monospace" font-size="8">MQ</text>
  <circle cx="613" cy="225" r="9" fill="#00E676" fill-opacity="0.08" stroke="#00E676" stroke-width="1.5"/>
  <circle cx="613" cy="225" r="2" fill="#00E676" fill-opacity="0.7"/>
  <text x="621" y="228" fill="#00E676" fill-opacity="0.35" font-family="monospace" font-size="8">LB</text>
  <circle cx="145" cy="232" r="5" fill="#00E676" fill-opacity="0.08" stroke="#00E676" stroke-width="1.5"/>
  <circle cx="145" cy="232" r="2" fill="#00E676" fill-opacity="0.7"/>
  <text x="153" y="235" fill="#00E676" fill-opacity="0.35" font-family="monospace" font-size="8">CDN</text>
  <circle cx="421" cy="139" r="7" fill="#00E676" fill-opacity="0.08" stroke="#00E676" stroke-width="1.5"/>
  <circle cx="421" cy="139" r="2" fill="#00E676" fill-opacity="0.7"/>
  <text x="429" y="142" fill="#00E676" fill-opacity="0.35" font-family="monospace" font-size="8">BASTION</text>
  <circle cx="600" cy="104" r="9" fill="#00E676" fill-opacity="0.08" stroke="#00E676" stroke-width="1.5"/>
  <circle cx="600" cy="104" r="2" fill="#00E676" fill-opacity="0.7"/>
  <text x="608" y="107" fill="#00E676" fill-opacity="0.35" font-family="monospace" font-size="8">WAF</text>
  <circle cx="617" cy="101" r="5" fill="#00E676" fill-opacity="0.08" stroke="#00E676" stroke-width="1.5"/>
  <circle cx="617" cy="101" r="2" fill="#00E676" fill-opacity="0.7"/>
  <text x="625" y="104" fill="#00E676" fill-opacity="0.35" font-family="monospace" font-size="8">SIEM</text>
  <circle cx="673" cy="250" r="7" fill="#00E676" fill-opacity="0.08" stroke="#00E676" stroke-width="1.5"/>
  <circle cx="673" cy="250" r="2" fill="#00E676" fill-opacity="0.7"/>
  <text x="681" y="253" fill="#00E676" fill-opacity="0.35" font-family="monospace" font-size="8">SOAR</text>
  <circle cx="548" cy="477" r="9" fill="#00E676" fill-opacity="0.08" stroke="#00E676" stroke-width="1.5"/>
  <circle cx="548" cy="477" r="2" fill="#00E676" fill-opacity="0.7"/>
  <text x="556" y="480" fill="#00E676" fill-opacity="0.35" font-family="monospace" font-size="8">EDR</text>
  <circle cx="361" cy="516" r="5" fill="#00E676" fill-opacity="0.08" stroke="#00E676" stroke-width="1.5"/>
  <circle cx="361" cy="516" r="2" fill="#00E676" fill-opacity="0.7"/>
  <text x="369" y="519" fill="#00E676" fill-opacity="0.35" font-family="monospace" font-size="8">NMS</text>
  <circle cx="639" cy="504" r="7" fill="#00E676" fill-opacity="0.08" stroke="#00E676" stroke-width="1.5"/>
  <circle cx="639" cy="504" r="2" fill="#00E676" fill-opacity="0.7"/>
  <text x="647" y="507" fill="#00E676" fill-opacity="0.35" font-family="monospace" font-size="8">RTR</text>
  <circle cx="410" cy="346" r="9" fill="#00E676" fill-opacity="0.08" stroke="#00E676" stroke-width="1.5"/>
  <circle cx="410" cy="346" r="2" fill="#00E676" fill-opacity="0.7"/>
  <text x="418" y="349" fill="#00E676" fill-opacity="0.35" font-family="monospace" font-size="8">SW1</text>
  <circle cx="294" cy="224" r="5" fill="#00E676" fill-opacity="0.08" stroke="#00E676" stroke-width="1.5"/>
  <circle cx="294" cy="224" r="2" fill="#00E676" fill-opacity="0.7"/>
  <text x="302" y="227" fill="#00E676" fill-opacity="0.35" font-family="monospace" font-size="8">SW2</text>
  <circle cx="755" cy="289" r="7" fill="#00E676" fill-opacity="0.08" stroke="#00E676" stroke-width="1.5"/>
  <circle cx="755" cy="289" r="2" fill="#00E676" fill-opacity="0.7"/>
  <text x="763" y="292" fill="#00E676" fill-opacity="0.35" font-family="monospace" font-size="8">AP</text>
  <circle cx="123" cy="347" r="9" fill="#00E676" fill-opacity="0.08" stroke="#00E676" stroke-width="1.5"/>
  <circle cx="123" cy="347" r="2" fill="#00E676" fill-opacity="0.7"/>
  <text x="131" y="350" fill="#00E676" fill-opacity="0.35" font-family="monospace" font-size="8">CLIENT</text>
  <circle cx="577" cy="546" r="5" fill="#00E676" fill-opacity="0.08" stroke="#00E676" stroke-width="1.5"/>
  <circle cx="577" cy="546" r="2" fill="#00E676" fill-opacity="0.7"/>
  <text x="585" y="549" fill="#00E676" fill-opacity="0.35" font-family="monospace" font-size="8">SENSOR</text>
  <circle cx="391" cy="499" r="7" fill="#00E676" fill-opacity="0.08" stroke="#00E676" stroke-width="1.5"/>
  <circle cx="391" cy="499" r="2" fill="#00E676" fill-opacity="0.7"/>
  <text x="399" y="502" fill="#00E676" fill-opacity="0.35" font-family="monospace" font-size="8">SCADA</text>
  <circle cx="334" cy="114" r="9" fill="#00E676" fill-opacity="0.08" stroke="#00E676" stroke-width="1.5"/>
  <circle cx="334" cy="114" r="2" fill="#00E676" fill-opacity="0.7"/>
  <text x="342" y="117" fill="#00E676" fill-opacity="0.35" font-family="monospace" font-size="8">PLC</text>
  <circle cx="160" cy="468" r="5" fill="#00E676" fill-opacity="0.08" stroke="#00E676" stroke-width="1.5"/>
  <circle cx="160" cy="468" r="2" fill="#00E676" fill-opacity="0.7"/>
  <text x="168" y="471" fill="#00E676" fill-opacity="0.35" font-family="monospace" font-size="8">HMI</text>
  <circle cx="208" cy="390" r="7" fill="#00E676" fill-opacity="0.08" stroke="#00E676" stroke-width="1.5"/>
  <circle cx="208" cy="390" r="2" fill="#00E676" fill-opacity="0.7"/>
  <text x="216" y="393" fill="#00E676" fill-opacity="0.35" font-family="monospace" font-size="8">IOTGW</text>
</g>
<!-- Cloud icon -->
<g transform="translate(680,80)" fill="none" stroke="#00E676" stroke-opacity="0.3" stroke-width="1.5">
  <path d="M-30,10 Q-40,-15 -20,-20 Q-10,-40 10,-35 Q30,-40 35,-20 Q50,-15 45,10 Z"/>
  <text x="0" y="30" text-anchor="middle" fill="#00E676" fill-opacity="0.3" font-family="monospace" font-size="9">CLOUD</text>
</g>
<text x="400" y="565" text-anchor="middle" fill="#00E676" fill-opacity="0.3" font-family="monospace" font-size="11">NETWORK TOPOLOGY // 35 NODES // OSPF/BGP</text>
<text x="400" y="30" text-anchor="middle" fill="#00E676" fill-opacity="0.4" font-family="monospace" font-size="14" font-weight="bold">NETWORK-MESH // TOPOLOGY MAP</text>
</svg>