<svg xmlns="http://www.w3.org/2000/svg" viewBox="0 0 800 600">
<defs>
  <radialGradient id="bg1" cx="50%" cy="50%" r="70%">
    <stop offset="0%" stop-color="#0f0f0f"/>
    <stop offset="100%" stop-color="#050505"/>
  </radialGradient>
  <linearGradient id="shieldGrad" x1="0" y1="0" x2="0" y2="1">
    <stop offset="0%" stop-color="#1a2a1a"/>
    <stop offset="50%" stop-color="#0d1f0d"/>
    <stop offset="100%" stop-color="#051005"/>
  </linearGradient>
  <linearGradient id="shieldBorder" x1="0" y1="0" x2="1" y2="1">
    <stop offset="0%" stop-color="#00E676"/>
    <stop offset="50%" stop-color="#009624"/>
    <stop offset="100%" stop-color="#00E676"/>
  </linearGradient>
  <radialGradient id="glow" cx="50%" cy="40%" r="40%">
    <stop offset="0%" stop-color="#00E676" stop-opacity="0.15"/>
    <stop offset="100%" stop-color="#00E676" stop-opacity="0"/>
  </radialGradient>
  <filter id="glowFilter">
    <feGaussianBlur stdDeviation="3" result="blur"/>
    <feMerge><feMergeNode in="blur"/><feMergeNode in="SourceGraphic"/></feMerge>
  </filter>
</defs>
<rect width="800" height="600" fill="url(#bg1)"/>
<rect width="800" height="600" fill="url(#glow)"/>
<!-- Matrix background grid -->
<g stroke="#00E676" stroke-opacity="0.06" stroke-width="0.5">
  <line x1="0" y1="0" x2="0" y2="600"/>
  <line x1="20" y1="0" x2="20" y2="600"/>
  <line x1="40" y1="0" x2="40" y2="600"/>
  <line x1="60" y1="0" x2="60" y2="600"/>
  <line x1="80" y1="0" x2="80" y2="600"/>
  <line x1="100" y1="0" x2="100" y2="600"/>
  <line x1="120" y1="0" x2="120" y2="600"/>
  <line x1="140" y1="0" x2="140" y2="600"/>
  <line x1="160" y1="0" x2="160" y2="600"/>
  <line x1="180" y1="0" x2="180" y2="600"/>
  <line x1="200" y1="0" x2="200" y2="600"/>
  <line x1="220" y1="0" x2="220" y2="600"/>
  <line x1="240" y1="0" x2="240" y2="600"/>
  <line x1="260" y1="0" x2="260" y2="600"/>
  <line x1="280" y1="0" x2="280" y2="600"/>
  <line x1="300" y1="0" x2="300" y2="600"/>
  <line x1="320" y1="0" x2="320" y2="600"/>
  <line x1="340" y1="0" x2="340" y2="600"/>
  <line x1="360" y1="0" x2="360" y2="600"/>
  <line x1="380" y1="0" x2="380" y2="600"/>
  <line x1="400" y1="0" x2="400" y2="600"/>
  <line x1="420" y1="0" x2="420" y2="600"/>
  <line x1="440" y1="0" x2="440" y2="600"/>
  <line x1="460" y1="0" x2="460" y2="600"/>
  <line x1="480" y1="0" x2="480" y2="600"/>
  <line x1="500" y1="0" x2="500" y2="600"/>
  <line x1="520" y1="0" x2="520" y2="600"/>
  <line x1="540" y1="0" x2="540" y2="600"/>
  <line x1="560" y1="0" x2="560" y2="600"/>
  <line x1="580" y1="0" x2="580" y2="600"/>
  <line x1="600" y1="0" x2="600" y2="600"/>
  <line x1="620" y1="0" x2="620" y2="600"/>
  <line x1="640" y1="0" x2="640" y2="600"/>
  <line x1="660" y1="0" x2="660" y2="600"/>
  <line x1="680" y1="0" x2="680" y2="600"/>
  <line x1="700" y1="0" x2="700" y2="600"/>
  <line x1="720" y1="0" x2="720" y2="600"/>
  <line x1="740" y1="0" x2="740" y2="600"/>
  <line x1="760" y1="0" x2="760" y2="600"/>
  <line x1="780" y1="0" x2="780" y2="600"/>
  <line x1="800" y1="0" x2="800" y2="600"/>
  <line x1="0" y1="0" x2="800" y2="0"/>
  <line x1="0" y1="20" x2="800" y2="20"/>
  <line x1="0" y1="40" x2="800" y2="40"/>
  <line x1="0" y1="60" x2="800" y2="60"/>
  <line x1="0" y1="80" x2="800" y2="80"/>
  <line x1="0" y1="100" x2="800" y2="100"/>
  <line x1="0" y1="120" x2="800" y2="120"/>
  <line x1="0" y1="140" x2="800" y2="140"/>
  <line x1="0" y1="160" x2="800" y2="160"/>
  <line x1="0" y1="180" x2="800" y2="180"/>
  <line x1="0" y1="200" x2="800" y2="200"/>
  <line x1="0" y1="220" x2="800" y2="220"/>
  <line x1="0" y1="240" x2="800" y2="240"/>
  <line x1="0" y1="260" x2="800" y2="260"/>
  <line x1="0" y1="280" x2="800" y2="280"/>
  <line x1="0" y1="300" x2="800" y2="300"/>
  <line x1="0" y1="320" x2="800" y2="320"/>
  <line x1="0" y1="340" x2="800" y2="340"/>
  <line x1="0" y1="360" x2="800" y2="360"/>
  <line x1="0" y1="380" x2="800" y2="380"/>
  <line x1="0" y1="400" x2="800" y2="400"/>
  <line x1="0" y1="420" x2="800" y2="420"/>
  <line x1="0" y1="440" x2="800" y2="440"/>
  <line x1="0" y1="460" x2="800" y2="460"/>
  <line x1="0" y1="480" x2="800" y2="480"/>
  <line x1="0" y1="500" x2="800" y2="500"/>
  <line x1="0" y1="520" x2="800" y2="520"/>
  <line x1="0" y1="540" x2="800" y2="540"/>
  <line x1="0" y1="560" x2="800" y2="560"/>
  <line x1="0" y1="580" x2="800" y2="580"/>
  <line x1="0" y1="600" x2="800" y2="600"/>
</g>
<!-- Scattered binary -->
<g fill="#00E676" fill-opacity="0.08" font-family="monospace" font-size="10">
  <text x="654" y="114">01000001</text>
  <text x="32" y="30">00000101</text>
  <text x="603" y="284">00111001</text>
  <text x="104" y="94">10111010</text>
  <text x="387" y="80">11000010</text>
  <text x="238" y="103">11110110</text>
  <text x="686" y="273">00001110</text>
  <text x="701" y="332">00011100</text>
  <text x="580" y="322">01110100</text>
  <text x="762" y="574">11110010</text>
  <text x="773" y="48">00010111</text>
  <text x="541" y="257">00110110</text>
  <text x="464" y="3">10010010</text>
  <text x="552" y="543">01100110</text>
  <text x="59" y="246">00100010</text>
  <text x="271" y="540">10011111</text>
  <text x="123" y="253">00100000</text>
  <text x="724" y="60">00010011</text>
  <text x="219" y="552">01011000</text>
  <text x="674" y="441">11110001</text>
  <text x="745" y="347">00001010</text>
  <text x="285" y="473">00100000</text>
  <text x="170" y="416">11010010</text>
  <text x="399" y="271">11110010</text>
  <text x="59" y="555">01001000</text>
  <text x="190" y="70">00100001</text>
  <text x="673" y="578">11010110</text>
  <text x="687" y="307">11001000</text>
  <text x="518" y="271">01001101</text>
  <text x="556" y="309">01001000</text>
  <text x="278" y="288">01011100</text>
  <text x="649" y="433">10010101</text>
  <text x="564" y="437">00000101</text>
  <text x="130" y="42">11010001</text>
  <text x="573" y="416">00001001</text>
  <text x="421" y="254">10010100</text>
  <text x="471" y="358">10000111</text>
  <text x="71" y="285">11100101</text>
  <text x="39" y="111">11110101</text>
  <text x="45" y="446">00110110</text>
  <text x="737" y="307">11111001</text>
  <text x="680" y="388">01101101</text>
  <text x="593" y="329">11101001</text>
  <text x="527" y="343">00100000</text>
  <text x="250" y="486">01101110</text>
  <text x="151" y="5">01001000</text>
  <text x="467" y="136">11111011</text>
  <text x="265" y="253">11011010</text>
  <text x="278" y="343">10000100</text>
  <text x="65" y="424">11110011</text>
  <text x="598" y="20">11011110</text>
  <text x="499" y="224">11101110</text>
  <text x="478" y="130">01001010</text>
  <text x="51" y="266">11011111</text>
  <text x="770" y="431">10100100</text>
  <text x="667" y="41">00000001</text>
  <text x="685" y="117">01110001</text>
  <text x="110" y="26">11100001</text>
  <text x="700" y="123">01110101</text>
  <text x="501" y="108">11101011</text>
  <text x="476" y="446">11001101</text>
  <text x="583" y="388">10110101</text>
  <text x="264" y="348">11000011</text>
  <text x="568" y="246">11100101</text>
  <text x="708" y="249">11111111</text>
  <text x="277" y="313">10001000</text>
  <text x="221" y="495">11001010</text>
  <text x="309" y="14">01001010</text>
  <text x="12" y="291">11110011</text>
  <text x="116" y="66">11000010</text>
  <text x="254" y="121">10111111</text>
  <text x="582" y="61">00010000</text>
  <text x="565" y="76">00111100</text>
  <text x="295" y="289">10010100</text>
  <text x="663" y="152">10000111</text>
  <text x="127" y="479">11111001</text>
  <text x="752" y="330">10000100</text>
  <text x="481" y="531">11011011</text>
  <text x="418" y="341">10011111</text>
  <text x="778" y="563">01011101</text>
</g>
<!-- Shield body -->
<g transform="translate(400,300)">
  <path d="M0,-200 L160,-140 L160,60 Q160,200 0,260 Q-160,200 -160,60 L-160,-140 Z"
        fill="url(#shieldGrad)" stroke="url(#shieldBorder)" stroke-width="4" filter="url(#glowFilter)"/>
  <path d="M0,-200 L160,-140 L160,60 Q160,200 0,260 Q-160,200 -160,60 L-160,-140 Z"
        fill="none" stroke="#00E676" stroke-opacity="0.3" stroke-width="1"/>
  <!-- Inner shield line -->
  <path d="M0,-170 L130,-118 L130,50 Q130,170 0,225 Q-130,170 -130,50 L-130,-118 Z"
        fill="none" stroke="#00E676" stroke-opacity="0.15" stroke-width="1"/>
  <!-- Lock body -->
  <rect x="-50" y="-30" width="100" height="80" rx="8" fill="none" stroke="#00E676" stroke-width="3"/>
  <rect x="-50" y="-30" width="100" height="80" rx="8" fill="#00E676" fill-opacity="0.08"/>
  <path d="M-30,-30 L-30,-60 Q-30,-90 0,-90 Q30,-90 30,-60 L30,-30"
        fill="none" stroke="#00E676" stroke-width="5" stroke-linecap="round"/>
  <circle cx="0" cy="10" r="16" fill="none" stroke="#00E676" stroke-width="3"/>
  <rect x="-8" y="5" width="16" height="20" rx="2" fill="#00E676"/>
  <!-- Keyhole -->
  <rect x="-3" y="18" width="6" height="12" rx="1" fill="#050505"/>
  <!-- Circuit traces on shield -->
  <line x1="60.6" y1="-85.0" x2="103.9" y2="-40.0" stroke="#00E676" stroke-opacity="0.25" stroke-width="1.5"/>
  <circle cx="103.9" cy="-40.0" r="3" fill="#00E676" fill-opacity="0.4"/>
  <circle cx="60.6" cy="-85.0" r="2" fill="#00E676" fill-opacity="0.3"/>
  <line x1="35.0" y1="-59.4" x2="60.0" y2="3.9" stroke="#00E676" stroke-opacity="0.25" stroke-width="1.5"/>
  <circle cx="60.0" cy="3.9" r="3" fill="#00E676" fill-opacity="0.4"/>
  <circle cx="35.0" cy="-59.4" r="2" fill="#00E676" fill-opacity="0.3"/>
  <line x1="-35.0" y1="-59.4" x2="-60.0" y2="3.9" stroke="#00E676" stroke-opacity="0.25" stroke-width="1.5"/>
  <circle cx="-60.0" cy="3.9" r="3" fill="#00E676" fill-opacity="0.4"/>
  <circle cx="-35.0" cy="-59.4" r="2" fill="#00E676" fill-opacity="0.3"/>
  <line x1="-60.6" y1="-85.0" x2="-103.9" y2="-40.0" stroke="#00E676" stroke-opacity="0.25" stroke-width="1.5"/>
  <circle cx="-103.9" cy="-40.0" r="3" fill="#00E676" fill-opacity="0.4"/>
  <circle cx="-60.6" cy="-85.0" r="2" fill="#00E676" fill-opacity="0.3"/>
  <line x1="-60.6" y1="-85.0" x2="-103.9" y2="-40.0" stroke="#00E676" stroke-opacity="0.25" stroke-width="1.5"/>
  <circle cx="-103.9" cy="-40.0" r="3" fill="#00E676" fill-opacity="0.4"/>
  <line x1="-35.0" y1="-59.4" x2="-60.0" y2="3.9" stroke="#00E676" stroke-opacity="0.25" stroke-width="1.5"/>
  <circle cx="-60.0" cy="3.9" r="3" fill="#00E676" fill-opacity="0.4"/>
</g>
<!-- Corner ornaments -->
<g stroke="#00E676" stroke-opacity="0.2" stroke-width="1" fill="none">
  <path d="M30,30 L50,50 M50,30 L30,50"/>
  <path d="M770,30 L750,50 M750,30 L770,50"/>
  <path d="M30,570 L50,550 M50,570 L30,550"/>
  <path d="M770,570 L750,550 M750,570 L770,550"/>
</g>
<!-- Shield stats -->
<g font-family="monospace" font-size="8" fill="#00E676" fill-opacity="0.2">
  <text x="20" y="500">PROTECTION: L4/L7</text>
  <text x="20" y="512">CIPHER: AES-256-GCM</text>
  <text x="20" y="524">HASH: SHA-3-512</text>
  <text x="20" y="536">KEX: X25519_MLKEM768</text>
  <text x="20" y="548">STATUS: HARDENED</text>
  <text x="20" y="560">UPTIME: 47d 13h 22m</text>
</g>
<!-- Firewall rules display -->
<g font-family="monospace" font-size="7" fill="#00E676" fill-opacity="0.1">
  <text x="620" y="500">Chain INPUT (policy DROP) 47 pkts</text>
  <text x="620" y="510">  ACCEPT  tcp -- 10.0.0.0/8  state EST</text>
  <text x="620" y="520">  ACCEPT  udp -- 10.0.0.0/8  port 53</text>
  <text x="620" y="530">  DROP    tcp -- 0.0.0.0/0  22</text>
  <text x="620" y="540">Chain OUTPUT (policy ACCEPT)</text>
  <text x="620" y="550">  ACCEPT  all -- anywhere</text>
  <text x="620" y="560">Chain FORWARD (policy DROP)</text>
</g>
<!-- Corner decorations -->
<g stroke="#00E676" stroke-opacity="0.08" stroke-width="0.5" fill="none">
  <path d="M60,50 L80,50 L80,60 M70,55 L80,55"/>
  <path d="M740,50 L720,50 L720,60 M730,55 L720,55"/>
  <path d="M60,550 L80,550 L80,540 M70,545 L80,545"/>
  <path d="M740,550 L720,550 L720,540 M730,545 L720,545"/>
</g>
<!-- Additional encryption badges -->
<g transform="translate(400,80)">
  <rect x="-140" y="-12" width="280" height="24" rx="4" fill="none" stroke="#00E676" stroke-opacity="0.06" stroke-width="0.5"/>
  <text x="0" y="4" text-anchor="middle" fill="#00E676" fill-opacity="0.15" font-family="monospace" font-size="8">TLS 1.3 // POST-QUANTUM READY // FIPS 140-3</text>
</g>
<text x="400" y="565" text-anchor="middle" fill="#00E676" fill-opacity="0.3" font-family="monospace" font-size="11">SECURITY HARDENED // SHIELD ACTIVE</text>
<text x="400" y="30" text-anchor="middle" fill="#00E676" fill-opacity="0.4" font-family="monospace" font-size="14" font-weight="bold">SHIELD-LOCK v2.4.1</text>
</svg>