<svg xmlns="http://www.w3.org/2000/svg" viewBox="0 0 800 600">
<defs>
  <radialGradient id="tbg" cx="50%" cy="50%" r="75%">
    <stop offset="0%" stop-color="#0f0f0f"/><stop offset="100%" stop-color="#050505"/>
  </radialGradient>
  <radialGradient id="tglow" cx="50%" cy="50%" r="50%">
    <stop offset="0%" stop-color="#00E676" stop-opacity="0.08"/>
    <stop offset="100%" stop-color="#00E676" stop-opacity="0"/>
  </radialGradient>
  <linearGradient id="termGrad" x1="0" y1="0" x2="0" y2="1">
    <stop offset="0%" stop-color="#0d1a0d"/><stop offset="100%" stop-color="#050d05"/>
  </linearGradient>
  <filter id="tgf"><feGaussianBlur stdDeviation="1.5"/></filter>
</defs>
<rect width="800" height="600" fill="url(#tbg)"/>
<rect width="800" height="600" fill="url(#tglow)"/>
<!-- Scope crosshair -->
<g stroke="#00E676" stroke-opacity="0.15" stroke-width="0.8">
  <line x1="0" y1="300" x2="800" y2="300"/>
  <line x1="400" y1="0" x2="400" y2="600"/>
</g>
<g transform="translate(400,300)" stroke="#00E676" stroke-opacity="0.2" fill="none">
  <circle cx="0" cy="0" r="200" stroke-width="0.5"/>
  <circle cx="0" cy="0" r="140" stroke-width="0.5"/>
  <circle cx="0" cy="0" r="80" stroke-width="0.5"/>
</g>
<!-- Crosshair main -->
<g transform="translate(400,300)" filter="url(#tgf)">
  <circle cx="0" cy="0" r="50" fill="none" stroke="#00E676" stroke-opacity="0.3" stroke-width="1"/>
  <line x1="-80" y1="0" x2="-20" y2="0" stroke="#00E676" stroke-width="1.5" stroke-opacity="0.5"/>
  <line x1="80" y1="0" x2="20" y2="0" stroke="#00E676" stroke-width="1.5" stroke-opacity="0.5"/>
  <line x1="0" y1="-80" x2="0" y2="-20" stroke="#00E676" stroke-width="1.5" stroke-opacity="0.5"/>
  <line x1="0" y1="80" x2="0" y2="20" stroke="#00E676" stroke-width="1.5" stroke-opacity="0.5"/>
  <circle cx="0" cy="0" r="3" fill="#00E676" fill-opacity="0.6"/>
</g>
<!-- Terminal window -->
<g transform="translate(50,80)">
  <rect x="0" y="0" width="300" height="440" rx="4" fill="url(#termGrad)" stroke="#00E676" stroke-opacity="0.3" stroke-width="1.5"/>
  <!-- Title bar -->
  <rect x="0" y="0" width="300" height="28" rx="4" fill="#00E676" fill-opacity="0.06"/>
  <rect x="0" y="24" width="300" height="4" fill="#00E676" fill-opacity="0.06"/>
  <circle cx="15" cy="14" r="4" fill="#ff5f56" fill-opacity="0.6"/>
  <circle cx="30" cy="14" r="4" fill="#ffbd2e" fill-opacity="0.6"/>
  <circle cx="45" cy="14" r="4" fill="#27c93f" fill-opacity="0.6"/>
  <text x="150" y="18" text-anchor="middle" fill="#00E676" fill-opacity="0.4" font-family="monospace" font-size="9">root@hunter:~/exploit-dev</text>
  <!-- Terminal content -->
  <g fill="#00E676" fill-opacity="0.5" font-family="monospace" font-size="11">
    <text x="12" y="52">$ ./recon.sh --target 10.0.0.0/24</text>
    <text x="12" y="68">[+] Scanning subnet 10.0.0.0/24</text>
    <text x="12" y="84">[+] 47 hosts discovered</text>
    <text x="12" y="100">[+] 23 open ports found</text>
    <text x="12" y="116">[+] Fingerprinting services...</text>
    <text x="12" y="132">$ nmap -sV -sC 10.0.0.15</text>
    <text x="12" y="148">PORT    STATE SERVICE  VERSION</text>
    <text x="12" y="164">22/tcp  open  ssh      OpenSSH 8.9</text>
    <text x="12" y="180">80/tcp  open  http     nginx 1.24</text>
    <text x="12" y="196">443/tcp open  https    nginx 1.24</text>
    <text x="12" y="212">3306/tcp open  mysql    8.0.33</text>
    <text x="12" y="236">$ ./exploit.sh --target 10.0.0.15:80</text>
    <text x="12" y="252">[+] CVE-2025-XXXXX detected</text>
    <text x="12" y="268">[+] Crafting payload...</text>
    <text x="12" y="284">[+] Payload: SQLi UNION based</text>
    <text x="12" y="300">[+] Extracting schema...</text>
    <text x="12" y="316">[+] 14 tables found</text>
    <text x="12" y="340">$ cat users.sql</text>
    <text x="12" y="356">-- Dump of user credentials</text>
    <text x="12" y="372">admin:$2y$10$H4ck3d...hashed</text>
    <text x="12" y="388">root:********************</text>
    <text x="12" y="404">[!] Hashcat mode 3200</text>
    <text x="12" y="420">[+] Cracking hash mode 3200...</text>
  <text x="12" y="436">[!] Password found: H4ck3r#2024!</text>
  </g>
  <!-- Blinking cursor -->
  <rect x="12" y="446" width="7" height="12" fill="#00E676" fill-opacity="0.6">
    <animate attributeName="opacity" values="0.6;0;0.6" dur="1s" repeatCount="indefinite"/>
  </rect>
</g>
<!-- Right side info panels -->
<g fill="#00E676" fill-opacity="0.25" font-family="monospace" font-size="10">
  <text x="420" y="60">TARGET_IP: 10.0.0.15</text>
  <text x="420" y="76">SESSION_ID: 0xDEADBEEF</text>
  <text x="420" y="92">PAYLOAD: SQLi_UNION</text>
  <text x="420" y="108">STATUS: ACTIVE</text>
  <text x="420" y="124">LATENCY: 7ms</text>
</g>
<!-- Hex bytes on right -->
<g fill="#00E676" fill-opacity="0.12" font-family="monospace" font-size="8">
  <text x="420" y="150">00400000  44 20 82 3c fd e6 f1 c2 6b 30 f9 0e c7 dd 01 e4</text>
  <text x="420" y="168">00400010  88 75 34 a2 0f 0b 0d 04 c3 6e d8 0e 71 e0 fd 77</text>
  <text x="420" y="186">00400020  b0 76 70 eb 94 0b d5 33 5f 97 3d aa d8 61 9b 91</text>
  <text x="420" y="204">00400030  ff c9 11 f5 7c ce d4 58 bb bf 2c e0 37 53 c9 bd</text>
  <text x="420" y="222">00400040  fa 0f f0 16 9d c9 57 56 74 06 66 76 cf b0 b4 eb</text>
  <text x="420" y="240">00400050  89 02 c4 42 69 da 1c f6 ba 66 d3 f8 b6 d4 b1 00</text>
  <text x="420" y="258">00400060  a9 ea 0e 75 5a 5c 2e 82 10 24 2a 08 e7 07 8f 7f</text>
  <text x="420" y="276">00400070  89 38 5e b0 94 23 55 51 82 56 8b 96 e8 a4 fe f2</text>
  <text x="420" y="294">00400080  3a 0c 9f c5 af d7 60 84 37 81 6b dd 0a 73 09 cb</text>
  <text x="420" y="312">00400090  4a 12 52 e4 da 70 e6 72 0f ca a4 da 1e 98 40 6c</text>
  <text x="420" y="330">004000a0  18 9c 24 27 9e 98 51 d5 81 42 04 13 6f eb 57 13</text>
  <text x="420" y="348">004000b0  c1 66 b1 32 69 dd 63 fc 35 c7 97 ff 08 a6 cd 90</text>
  <text x="420" y="366">004000c0  09 50 66 a7 45 ad db 6d 88 31 c2 b0 f8 78 21 14</text>
  <text x="420" y="384">004000d0  2b 44 56 55 6d 89 aa 82 bc ad ae 3a 95 78 fa 45</text>
  <text x="420" y="402">004000e0  35 a4 14 d0 25 c2 4b 40 ae 3a c1 27 72 29 88 ba</text>
  <text x="420" y="420">004000f0  97 3a ea 8d 37 17 97 06 07 2e d3 3a 14 60 7a d7</text>
  <text x="420" y="438">00400100  52 3b e6 55 7b 51 34 de c1 96 81 f4 a1 33 6a a2</text>
  <text x="420" y="456">00400110  14 0d 05 97 a3 e6 c8 a0 cc 20 20 a2 e9 39 80 6e</text>
  <text x="420" y="474">00400120  f0 b6 84 5d 6a 9d 65 7e b8 29 8f 2d e5 2e ad 74</text>
  <text x="420" y="492">00400130  c7 9d 15 a7 5f a2 9b 7d ab 33 2f 7d 70 0a 7c cd</text>
</g>
<g fill="#00E676" fill-opacity="0.1" font-family="monospace" font-size="7">
  <text x="420" y="530">[0x7ffe0000] stack_base</text>
  <text x="420" y="542">[0x7ffe0fff] stack_top</text>
  <text x="420" y="554">[0x00400000] text_start</text>
  <text x="420" y="566">[0x00401000] plt/got</text>
</g>
<!-- Additional terminal in bottom right -->
<g transform="translate(420,430)" fill="none" stroke="#00E676" stroke-opacity="0.1" stroke-width="0.8">
  <rect x="0" y="0" width="350" height="120" rx="3"/>
  <text x="10" y="18" fill="#00E676" fill-opacity="0.3" font-family="monospace" font-size="8">$ nc -lvnp 4444</text>
  <text x="10" y="32" fill="#00E676" fill-opacity="0.2" font-family="monospace" font-size="8">listening on 0.0.0.0:4444 ...</text>
  <text x="10" y="46" fill="#00E676" fill-opacity="0.2" font-family="monospace" font-size="8">connect to 10.0.0.15:4444</text>
  <text x="10" y="60" fill="#00E676" fill-opacity="0.3" font-family="monospace" font-size="8">$ whoami</text>
  <text x="10" y="74" fill="#00E676" fill-opacity="0.4" font-family="monospace" font-size="8">root</text>
  <text x="10" y="88" fill="#00E676" fill-opacity="0.3" font-family="monospace" font-size="8">$ cat /etc/shadow | grep admin</text>
  <text x="10" y="102" fill="#00E676" fill-opacity="0.2" font-family="monospace" font-size="8">admin:$6$rounds=656000$H4ck3d...:::</text>
</g>
<!-- Scattered hex decorations -->
<g fill="#00E676" fill-opacity="0.04" font-family="monospace" font-size="6">
  <text x="569" y="346">3b</text>
  <text x="450" y="274">73</text>
  <text x="508" y="94">73</text>
  <text x="419" y="371">04</text>
  <text x="411" y="160">9b</text>
  <text x="715" y="404">c1</text>
  <text x="662" y="287">a6</text>
  <text x="543" y="117">ad</text>
  <text x="504" y="396">51</text>
  <text x="417" y="341">23</text>
  <text x="661" y="128">8a</text>
  <text x="521" y="135">94</text>
  <text x="377" y="256">c5</text>
  <text x="409" y="324">f3</text>
  <text x="457" y="176">42</text>
  <text x="492" y="206">19</text>
  <text x="382" y="303">13</text>
  <text x="738" y="414">a8</text>
  <text x="549" y="321">e8</text>
  <text x="662" y="356">4d</text>
  <text x="479" y="327">e9</text>
  <text x="766" y="257">16</text>
  <text x="502" y="160">04</text>
  <text x="474" y="87">90</text>
  <text x="542" y="368">65</text>
  <text x="567" y="137">b8</text>
  <text x="534" y="137">72</text>
  <text x="670" y="110">dd</text>
  <text x="749" y="104">f2</text>
  <text x="422" y="153">5b</text>
</g>
<!-- Status indicators on right -->
<g>
  <rect x="420" y="140" width="160" height="80" rx="4" fill="none" stroke="#00E676" stroke-opacity="0.1" stroke-width="1"/>
  <text x="430" y="158" fill="#00E676" fill-opacity="0.3" font-family="monospace" font-size="9">PROTOCOL: IPv4/TCP</text>
  <text x="430" y="172" fill="#00E676" fill-opacity="0.3" font-family="monospace" font-size="9">SRC_PORT: 4444</text>
  <text x="430" y="186" fill="#00E676" fill-opacity="0.3" font-family="monospace" font-size="9">DST_PORT: 80</text>
  <text x="430" y="200" fill="#00E676" fill-opacity="0.3" font-family="monospace" font-size="9">TTL: 64</text>
  <text x="430" y="214" fill="#00E676" fill-opacity="0.3" font-family="monospace" font-size="9">FLAGS: SYN/ACK</text>
</g>
<text x="400" y="565" text-anchor="middle" fill="#00E676" fill-opacity="0.3" font-family="monospace" font-size="11">TERMINAL // SCOPE ACTIVE // TARGET ACQUIRED</text>
<text x="400" y="30" text-anchor="middle" fill="#00E676" fill-opacity="0.4" font-family="monospace" font-size="14" font-weight="bold">TERMINAL-SCOPE // RECON MODE</text>
</svg>